M48
;GenerationSoftware,Autodesk,EAGLE,9.1.3*%
;CreationDate,2019-02-03T20:39:41Z*%
FMAT,2
ICI,OFF
METRIC,TZ,000.000
T8C0.508
T7C0.813
T6C1.000
T5C1.016
T4C1.320
T3C2.390
T2C3.200
T1C3.550
%
G90
M71
T1
X-32510Y32340
X-16510Y-22860
T2
X-9525Y29210
X1905Y29210
T3
X-16510Y40620
T4
X-24510Y40620
X-24510Y-31600
T5
X20320Y36830
X19050Y20320
X16510Y20320
X-10160Y-39370
X-12700Y-39370
X-19050Y-39370
X-16510Y-39370
X22860Y36830
X34290Y1270
X34290Y-1270
X34290Y-3810
X34290Y-6350
X34290Y-8890
X34290Y-11430
X34290Y-13970
X34290Y-16510
X34290Y-19050
X34290Y-21590
X34290Y-24130
X34290Y-26670
X34290Y-29210
X34290Y-31750
X11430Y1270
X11430Y-1270
X11430Y-3810
X11430Y-6350
X11430Y-8890
X11430Y-11430
X11430Y-13970
X11430Y-16510
X11430Y-19050
X11430Y-21590
X11430Y-24130
X11430Y-26670
X11430Y-29210
X11430Y-31750
X26670Y8890
X26670Y6350
T6
X-635Y20320
X-4445Y22860
X-1905Y22860
X635Y22860
X-8255Y20320
X-6985Y22860
X-5715Y20320
X-3175Y20320
T7
X12700Y-43180
X26670Y-7620
X26670Y-2540
X-7620Y6350
X12700Y-45720
X33020Y-43180
X12700Y-40640
X20320Y-2540
X12700Y-50800
X33020Y-40640
X26670Y-19050
X33020Y-45720
X33020Y-48260
X33020Y-50800
X33020Y-53340
X12700Y-48260
X-7620Y13970
X-7620Y11430
X-7620Y3810
X-7620Y1270
X-7620Y8890
X21590Y-19050
X-7620Y-1270
X-7620Y-3810
X0Y-3810
X0Y-1270
X0Y1270
X0Y3810
X0Y6350
X0Y8890
X0Y11430
X0Y13970
X20320Y0
T8
X-8890Y-17780
X-8890Y-12700
X-8890Y-20320
X7620Y-8890
X-8890Y-15240
X0Y-24130
X-1270Y-40640
X-8890Y-29210
X-8890Y-27940
X3810Y5080
X29210Y33020
X-8890Y-25400
X1270Y-25400
M30