G04 EAGLE Gerber X2 export*
%TF.Part,Single*%
%TF.FileFunction,Profile,NP*%
%TF.FilePolarity,Positive*%
%TF.GenerationSoftware,Autodesk,EAGLE,9.1.3*%
%TF.CreationDate,2019-02-03T20:39:41Z*%
G75*
%MOMM*%
%FSLAX34Y34*%
%LPD*%
%AMOC8*
5,1,8,0,0,1.08239X$1,22.5*%
G01*
%ADD10C,0.254000*%


D10*
X-368300Y-584200D02*
X381000Y-584200D01*
X381000Y444500D01*
X-368300Y444500D01*
X-368300Y-584200D01*
X3050Y292624D02*
X3119Y293669D01*
X3255Y294708D01*
X3460Y295735D01*
X3731Y296747D01*
X4067Y297739D01*
X4468Y298707D01*
X4932Y299646D01*
X5456Y300554D01*
X6038Y301425D01*
X6675Y302256D01*
X7366Y303043D01*
X8107Y303784D01*
X8894Y304475D01*
X9725Y305113D01*
X10596Y305695D01*
X11504Y306218D01*
X12443Y306682D01*
X13411Y307083D01*
X14403Y307419D01*
X15415Y307690D01*
X16442Y307895D01*
X17481Y308032D01*
X18526Y308100D01*
X19574Y308100D01*
X20619Y308032D01*
X21658Y307895D01*
X22685Y307690D01*
X23697Y307419D01*
X24689Y307083D01*
X25657Y306682D01*
X26596Y306218D01*
X27504Y305695D01*
X28375Y305113D01*
X29206Y304475D01*
X29993Y303784D01*
X30734Y303043D01*
X31425Y302256D01*
X32063Y301425D01*
X32645Y300554D01*
X33168Y299646D01*
X33632Y298707D01*
X34033Y297739D01*
X34369Y296747D01*
X34640Y295735D01*
X34845Y294708D01*
X34982Y293669D01*
X35050Y292624D01*
X35050Y291576D01*
X34982Y290531D01*
X34845Y289492D01*
X34640Y288465D01*
X34369Y287453D01*
X34033Y286461D01*
X33632Y285493D01*
X33168Y284554D01*
X32645Y283646D01*
X32063Y282775D01*
X31425Y281944D01*
X30734Y281157D01*
X29993Y280416D01*
X29206Y279725D01*
X28375Y279088D01*
X27504Y278506D01*
X26596Y277982D01*
X25657Y277518D01*
X24689Y277117D01*
X23697Y276781D01*
X22685Y276510D01*
X21658Y276305D01*
X20619Y276169D01*
X19574Y276100D01*
X18526Y276100D01*
X17481Y276169D01*
X16442Y276305D01*
X15415Y276510D01*
X14403Y276781D01*
X13411Y277117D01*
X12443Y277518D01*
X11504Y277982D01*
X10596Y278506D01*
X9725Y279088D01*
X8894Y279725D01*
X8107Y280416D01*
X7366Y281157D01*
X6675Y281944D01*
X6038Y282775D01*
X5456Y283646D01*
X4932Y284554D01*
X4468Y285493D01*
X4067Y286461D01*
X3731Y287453D01*
X3460Y288465D01*
X3255Y289492D01*
X3119Y290531D01*
X3050Y291576D01*
X3050Y292624D01*
X-111250Y292624D02*
X-111182Y293669D01*
X-111045Y294708D01*
X-110840Y295735D01*
X-110569Y296747D01*
X-110233Y297739D01*
X-109832Y298707D01*
X-109368Y299646D01*
X-108845Y300554D01*
X-108263Y301425D01*
X-107625Y302256D01*
X-106934Y303043D01*
X-106193Y303784D01*
X-105406Y304475D01*
X-104575Y305113D01*
X-103704Y305695D01*
X-102796Y306218D01*
X-101857Y306682D01*
X-100889Y307083D01*
X-99897Y307419D01*
X-98885Y307690D01*
X-97858Y307895D01*
X-96819Y308032D01*
X-95774Y308100D01*
X-94726Y308100D01*
X-93681Y308032D01*
X-92642Y307895D01*
X-91615Y307690D01*
X-90603Y307419D01*
X-89611Y307083D01*
X-88643Y306682D01*
X-87704Y306218D01*
X-86796Y305695D01*
X-85925Y305113D01*
X-85094Y304475D01*
X-84307Y303784D01*
X-83566Y303043D01*
X-82875Y302256D01*
X-82238Y301425D01*
X-81656Y300554D01*
X-81132Y299646D01*
X-80668Y298707D01*
X-80267Y297739D01*
X-79931Y296747D01*
X-79660Y295735D01*
X-79455Y294708D01*
X-79319Y293669D01*
X-79250Y292624D01*
X-79250Y291576D01*
X-79319Y290531D01*
X-79455Y289492D01*
X-79660Y288465D01*
X-79931Y287453D01*
X-80267Y286461D01*
X-80668Y285493D01*
X-81132Y284554D01*
X-81656Y283646D01*
X-82238Y282775D01*
X-82875Y281944D01*
X-83566Y281157D01*
X-84307Y280416D01*
X-85094Y279725D01*
X-85925Y279088D01*
X-86796Y278506D01*
X-87704Y277982D01*
X-88643Y277518D01*
X-89611Y277117D01*
X-90603Y276781D01*
X-91615Y276510D01*
X-92642Y276305D01*
X-93681Y276169D01*
X-94726Y276100D01*
X-95774Y276100D01*
X-96819Y276169D01*
X-97858Y276305D01*
X-98885Y276510D01*
X-99897Y276781D01*
X-100889Y277117D01*
X-101857Y277518D01*
X-102796Y277982D01*
X-103704Y278506D01*
X-104575Y279088D01*
X-105406Y279725D01*
X-106193Y280416D01*
X-106934Y281157D01*
X-107625Y281944D01*
X-108263Y282775D01*
X-108845Y283646D01*
X-109368Y284554D01*
X-109832Y285493D01*
X-110233Y286461D01*
X-110569Y287453D01*
X-110840Y288465D01*
X-111045Y289492D01*
X-111182Y290531D01*
X-111250Y291576D01*
X-111250Y292624D01*
M02*
