G04 EAGLE Gerber X2 export*
%TF.Part,Single*%
%TF.FileFunction,Legend,Top,1*%
%TF.FilePolarity,Positive*%
%TF.GenerationSoftware,Autodesk,EAGLE,9.1.3*%
%TF.CreationDate,2019-02-03T20:39:41Z*%
G75*
%MOMM*%
%FSLAX34Y34*%
%LPD*%
%AMOC8*
5,1,8,0,0,1.08239X$1,22.5*%
G01*
%ADD10C,0.203200*%
%ADD11C,0.152400*%
%ADD12C,0.076200*%
%ADD13C,0.127000*%
%ADD14C,0.101600*%
%ADD15C,0.254000*%
%ADD16C,0.200000*%


D10*
X286766Y-32757D02*
X286766Y-43434D01*
X292105Y-43434D01*
X293884Y-41655D01*
X293884Y-34536D01*
X292105Y-32757D01*
X286766Y-32757D01*
X298460Y-43434D02*
X305578Y-43434D01*
X298460Y-43434D02*
X305578Y-36316D01*
X305578Y-34536D01*
X303799Y-32757D01*
X300239Y-32757D01*
X298460Y-34536D01*
X286766Y-58157D02*
X286766Y-68834D01*
X292105Y-68834D01*
X293884Y-67055D01*
X293884Y-59936D01*
X292105Y-58157D01*
X286766Y-58157D01*
X298460Y-59936D02*
X300239Y-58157D01*
X303799Y-58157D01*
X305578Y-59936D01*
X305578Y-61716D01*
X303799Y-63495D01*
X302019Y-63495D01*
X303799Y-63495D02*
X305578Y-65275D01*
X305578Y-67055D01*
X303799Y-68834D01*
X300239Y-68834D01*
X298460Y-67055D01*
X310154Y-59936D02*
X317272Y-67055D01*
X310154Y-67055D02*
X317272Y-59936D01*
X317272Y-63495D02*
X310154Y-63495D01*
X313713Y-67055D02*
X313713Y-59936D01*
X286766Y-83557D02*
X286766Y-94234D01*
X292105Y-94234D01*
X293884Y-92455D01*
X293884Y-85336D01*
X292105Y-83557D01*
X286766Y-83557D01*
X303799Y-83557D02*
X303799Y-94234D01*
X298460Y-88895D02*
X303799Y-83557D01*
X305578Y-88895D02*
X298460Y-88895D01*
X286766Y-108957D02*
X286766Y-119634D01*
X292105Y-119634D01*
X293884Y-117855D01*
X293884Y-110736D01*
X292105Y-108957D01*
X286766Y-108957D01*
X298460Y-108957D02*
X305578Y-108957D01*
X298460Y-108957D02*
X298460Y-114295D01*
X302019Y-112516D01*
X303799Y-112516D01*
X305578Y-114295D01*
X305578Y-117855D01*
X303799Y-119634D01*
X300239Y-119634D01*
X298460Y-117855D01*
X310154Y-110736D02*
X317272Y-117855D01*
X310154Y-117855D02*
X317272Y-110736D01*
X317272Y-114295D02*
X310154Y-114295D01*
X313713Y-117855D02*
X313713Y-110736D01*
X286766Y-134357D02*
X286766Y-145034D01*
X292105Y-145034D01*
X293884Y-143255D01*
X293884Y-136136D01*
X292105Y-134357D01*
X286766Y-134357D01*
X302019Y-136136D02*
X305578Y-134357D01*
X302019Y-136136D02*
X298460Y-139695D01*
X298460Y-143255D01*
X300239Y-145034D01*
X303799Y-145034D01*
X305578Y-143255D01*
X305578Y-141475D01*
X303799Y-139695D01*
X298460Y-139695D01*
X310154Y-136136D02*
X317272Y-143255D01*
X310154Y-143255D02*
X317272Y-136136D01*
X317272Y-139695D02*
X310154Y-139695D01*
X313713Y-143255D02*
X313713Y-136136D01*
X286766Y-159757D02*
X286766Y-170434D01*
X292105Y-170434D01*
X293884Y-168655D01*
X293884Y-161536D01*
X292105Y-159757D01*
X286766Y-159757D01*
X298460Y-159757D02*
X305578Y-159757D01*
X305578Y-161536D01*
X298460Y-168655D01*
X298460Y-170434D01*
X286766Y-185157D02*
X286766Y-195834D01*
X292105Y-195834D01*
X293884Y-194055D01*
X293884Y-186936D01*
X292105Y-185157D01*
X286766Y-185157D01*
X298460Y-186936D02*
X300239Y-185157D01*
X303799Y-185157D01*
X305578Y-186936D01*
X305578Y-188716D01*
X303799Y-190495D01*
X305578Y-192275D01*
X305578Y-194055D01*
X303799Y-195834D01*
X300239Y-195834D01*
X298460Y-194055D01*
X298460Y-192275D01*
X300239Y-190495D01*
X298460Y-188716D01*
X298460Y-186936D01*
X300239Y-190495D02*
X303799Y-190495D01*
X286766Y-210557D02*
X286766Y-221234D01*
X292105Y-221234D01*
X293884Y-219455D01*
X293884Y-212336D01*
X292105Y-210557D01*
X286766Y-210557D01*
X298460Y-219455D02*
X300239Y-221234D01*
X303799Y-221234D01*
X305578Y-219455D01*
X305578Y-212336D01*
X303799Y-210557D01*
X300239Y-210557D01*
X298460Y-212336D01*
X298460Y-214116D01*
X300239Y-215895D01*
X305578Y-215895D01*
X310154Y-212336D02*
X317272Y-219455D01*
X310154Y-219455D02*
X317272Y-212336D01*
X317272Y-215895D02*
X310154Y-215895D01*
X313713Y-219455D02*
X313713Y-212336D01*
X286766Y-235957D02*
X286766Y-246634D01*
X292105Y-246634D01*
X293884Y-244855D01*
X293884Y-237736D01*
X292105Y-235957D01*
X286766Y-235957D01*
X298460Y-239516D02*
X302019Y-235957D01*
X302019Y-246634D01*
X298460Y-246634D02*
X305578Y-246634D01*
X310154Y-244855D02*
X310154Y-237736D01*
X311933Y-235957D01*
X315493Y-235957D01*
X317272Y-237736D01*
X317272Y-244855D01*
X315493Y-246634D01*
X311933Y-246634D01*
X310154Y-244855D01*
X317272Y-237736D01*
X321848Y-237736D02*
X328966Y-244855D01*
X321848Y-244855D02*
X328966Y-237736D01*
X328966Y-241295D02*
X321848Y-241295D01*
X325407Y-244855D02*
X325407Y-237736D01*
X286766Y-261357D02*
X286766Y-272034D01*
X292105Y-272034D01*
X293884Y-270255D01*
X293884Y-263136D01*
X292105Y-261357D01*
X286766Y-261357D01*
X298460Y-264916D02*
X302019Y-261357D01*
X302019Y-272034D01*
X298460Y-272034D02*
X305578Y-272034D01*
X310154Y-264916D02*
X313713Y-261357D01*
X313713Y-272034D01*
X310154Y-272034D02*
X317272Y-272034D01*
X321848Y-263136D02*
X328966Y-270255D01*
X321848Y-270255D02*
X328966Y-263136D01*
X328966Y-266695D02*
X321848Y-266695D01*
X325407Y-270255D02*
X325407Y-263136D01*
X152253Y-145034D02*
X152253Y-137916D01*
X155812Y-134357D01*
X159371Y-137916D01*
X159371Y-145034D01*
X159371Y-139695D02*
X152253Y-139695D01*
X163947Y-143255D02*
X163947Y-136136D01*
X165727Y-134357D01*
X169286Y-134357D01*
X171065Y-136136D01*
X171065Y-143255D01*
X169286Y-145034D01*
X165727Y-145034D01*
X163947Y-143255D01*
X171065Y-136136D01*
X152253Y-163316D02*
X152253Y-170434D01*
X152253Y-163316D02*
X155812Y-159757D01*
X159371Y-163316D01*
X159371Y-170434D01*
X159371Y-165095D02*
X152253Y-165095D01*
X163947Y-163316D02*
X167506Y-159757D01*
X167506Y-170434D01*
X163947Y-170434D02*
X171065Y-170434D01*
X152253Y-188716D02*
X152253Y-195834D01*
X152253Y-188716D02*
X155812Y-185157D01*
X159371Y-188716D01*
X159371Y-195834D01*
X159371Y-190495D02*
X152253Y-190495D01*
X163947Y-195834D02*
X171065Y-195834D01*
X163947Y-195834D02*
X171065Y-188716D01*
X171065Y-186936D01*
X169286Y-185157D01*
X165727Y-185157D01*
X163947Y-186936D01*
X152253Y-214116D02*
X152253Y-221234D01*
X152253Y-214116D02*
X155812Y-210557D01*
X159371Y-214116D01*
X159371Y-221234D01*
X159371Y-215895D02*
X152253Y-215895D01*
X163947Y-212336D02*
X165727Y-210557D01*
X169286Y-210557D01*
X171065Y-212336D01*
X171065Y-214116D01*
X169286Y-215895D01*
X167506Y-215895D01*
X169286Y-215895D02*
X171065Y-217675D01*
X171065Y-219455D01*
X169286Y-221234D01*
X165727Y-221234D01*
X163947Y-219455D01*
X152253Y-239516D02*
X152253Y-246634D01*
X152253Y-239516D02*
X155812Y-235957D01*
X159371Y-239516D01*
X159371Y-246634D01*
X159371Y-241295D02*
X152253Y-241295D01*
X169286Y-235957D02*
X169286Y-246634D01*
X163947Y-241295D02*
X169286Y-235957D01*
X171065Y-241295D02*
X163947Y-241295D01*
X152253Y-264916D02*
X152253Y-272034D01*
X152253Y-264916D02*
X155812Y-261357D01*
X159371Y-264916D01*
X159371Y-272034D01*
X159371Y-266695D02*
X152253Y-266695D01*
X163947Y-261357D02*
X171065Y-261357D01*
X163947Y-261357D02*
X163947Y-266695D01*
X167506Y-264916D01*
X169286Y-264916D01*
X171065Y-266695D01*
X171065Y-270255D01*
X169286Y-272034D01*
X165727Y-272034D01*
X163947Y-270255D01*
X152253Y-290316D02*
X152253Y-297434D01*
X152253Y-290316D02*
X155812Y-286757D01*
X159371Y-290316D01*
X159371Y-297434D01*
X159371Y-292095D02*
X152253Y-292095D01*
X167506Y-288536D02*
X171065Y-286757D01*
X167506Y-288536D02*
X163947Y-292095D01*
X163947Y-295655D01*
X165727Y-297434D01*
X169286Y-297434D01*
X171065Y-295655D01*
X171065Y-293875D01*
X169286Y-292095D01*
X163947Y-292095D01*
X152253Y-315716D02*
X152253Y-322834D01*
X152253Y-315716D02*
X155812Y-312157D01*
X159371Y-315716D01*
X159371Y-322834D01*
X159371Y-317495D02*
X152253Y-317495D01*
X163947Y-312157D02*
X171065Y-312157D01*
X171065Y-313936D01*
X163947Y-321055D01*
X163947Y-322834D01*
X286766Y-297434D02*
X286766Y-286757D01*
X286766Y-297434D02*
X292105Y-297434D01*
X293884Y-295655D01*
X293884Y-288536D01*
X292105Y-286757D01*
X286766Y-286757D01*
X298460Y-290316D02*
X302019Y-286757D01*
X302019Y-297434D01*
X298460Y-297434D02*
X305578Y-297434D01*
X310154Y-297434D02*
X317272Y-297434D01*
X310154Y-297434D02*
X317272Y-290316D01*
X317272Y-288536D01*
X315493Y-286757D01*
X311933Y-286757D01*
X310154Y-288536D01*
X286766Y-312157D02*
X286766Y-322834D01*
X292105Y-322834D01*
X293884Y-321055D01*
X293884Y-313936D01*
X292105Y-312157D01*
X286766Y-312157D01*
X298460Y-315716D02*
X302019Y-312157D01*
X302019Y-322834D01*
X298460Y-322834D02*
X305578Y-322834D01*
X310154Y-313936D02*
X311933Y-312157D01*
X315493Y-312157D01*
X317272Y-313936D01*
X317272Y-315716D01*
X315493Y-317495D01*
X313713Y-317495D01*
X315493Y-317495D02*
X317272Y-319275D01*
X317272Y-321055D01*
X315493Y-322834D01*
X311933Y-322834D01*
X310154Y-321055D01*
X293884Y-9136D02*
X292105Y-7357D01*
X288546Y-7357D01*
X286766Y-9136D01*
X286766Y-16255D01*
X288546Y-18034D01*
X292105Y-18034D01*
X293884Y-16255D01*
X293884Y-12695D01*
X290325Y-12695D01*
X298460Y-7357D02*
X298460Y-18034D01*
X305578Y-18034D02*
X298460Y-7357D01*
X305578Y-7357D02*
X305578Y-18034D01*
X310154Y-18034D02*
X310154Y-7357D01*
X310154Y-18034D02*
X315493Y-18034D01*
X317272Y-16255D01*
X317272Y-9136D01*
X315493Y-7357D01*
X310154Y-7357D01*
X286766Y16264D02*
X288546Y18043D01*
X292105Y18043D01*
X293884Y16264D01*
X293884Y14484D01*
X292105Y12705D01*
X290325Y12705D01*
X292105Y12705D02*
X293884Y10925D01*
X293884Y9146D01*
X292105Y7366D01*
X288546Y7366D01*
X286766Y9146D01*
X298460Y10925D02*
X298460Y18043D01*
X298460Y10925D02*
X302019Y7366D01*
X305578Y10925D01*
X305578Y18043D01*
X310154Y16264D02*
X311933Y18043D01*
X315493Y18043D01*
X317272Y16264D01*
X317272Y14484D01*
X315493Y12705D01*
X313713Y12705D01*
X315493Y12705D02*
X317272Y10925D01*
X317272Y9146D01*
X315493Y7366D01*
X311933Y7366D01*
X310154Y9146D01*
X147677Y16264D02*
X145898Y18043D01*
X142339Y18043D01*
X140559Y16264D01*
X140559Y9146D01*
X142339Y7366D01*
X145898Y7366D01*
X147677Y9146D01*
X147677Y12705D01*
X144118Y12705D01*
X152253Y18043D02*
X152253Y7366D01*
X159371Y7366D02*
X152253Y18043D01*
X159371Y18043D02*
X159371Y7366D01*
X163947Y7366D02*
X163947Y18043D01*
X163947Y7366D02*
X169286Y7366D01*
X171065Y9146D01*
X171065Y16264D01*
X169286Y18043D01*
X163947Y18043D01*
X128865Y-10916D02*
X128865Y-18034D01*
X128865Y-10916D02*
X132424Y-7357D01*
X135983Y-10916D01*
X135983Y-18034D01*
X135983Y-12695D02*
X128865Y-12695D01*
X140559Y-7357D02*
X140559Y-18034D01*
X140559Y-7357D02*
X145898Y-7357D01*
X147677Y-9136D01*
X147677Y-12695D01*
X145898Y-14475D01*
X140559Y-14475D01*
X144118Y-14475D02*
X147677Y-18034D01*
X152253Y-7357D02*
X159371Y-7357D01*
X152253Y-7357D02*
X152253Y-18034D01*
X159371Y-18034D01*
X155812Y-12695D02*
X152253Y-12695D01*
X163947Y-7357D02*
X163947Y-18034D01*
X163947Y-7357D02*
X171065Y-7357D01*
X167506Y-12695D02*
X163947Y-12695D01*
X142339Y-32757D02*
X140559Y-34536D01*
X142339Y-32757D02*
X145898Y-32757D01*
X147677Y-34536D01*
X147677Y-36316D01*
X145898Y-38095D01*
X144118Y-38095D01*
X145898Y-38095D02*
X147677Y-39875D01*
X147677Y-41655D01*
X145898Y-43434D01*
X142339Y-43434D01*
X140559Y-41655D01*
X152253Y-39875D02*
X152253Y-32757D01*
X152253Y-39875D02*
X155812Y-43434D01*
X159371Y-39875D01*
X159371Y-32757D01*
X163947Y-34536D02*
X165726Y-32757D01*
X169286Y-32757D01*
X171065Y-34536D01*
X171065Y-36316D01*
X169286Y-38095D01*
X167506Y-38095D01*
X169286Y-38095D02*
X171065Y-39875D01*
X171065Y-41655D01*
X169286Y-43434D01*
X165726Y-43434D01*
X163947Y-41655D01*
X144457Y-58157D02*
X144457Y-68834D01*
X144457Y-58157D02*
X149796Y-58157D01*
X151575Y-59936D01*
X151575Y-63495D01*
X149796Y-65275D01*
X144457Y-65275D01*
X148016Y-65275D02*
X151575Y-68834D01*
X156151Y-58157D02*
X163269Y-68834D01*
X156151Y-68834D02*
X163269Y-58157D01*
X167845Y-68834D02*
X171404Y-68834D01*
X169624Y-68834D02*
X169624Y-58157D01*
X167845Y-58157D02*
X171404Y-58157D01*
X144118Y-83557D02*
X144118Y-94234D01*
X140559Y-83557D02*
X147677Y-83557D01*
X152253Y-83557D02*
X159371Y-94234D01*
X152253Y-94234D02*
X159371Y-83557D01*
X165726Y-83557D02*
X169286Y-83557D01*
X165726Y-83557D02*
X163947Y-85336D01*
X163947Y-92455D01*
X165726Y-94234D01*
X169286Y-94234D01*
X171065Y-92455D01*
X171065Y-85336D01*
X169286Y-83557D01*
X140559Y-108957D02*
X140559Y-119634D01*
X145898Y-119634D01*
X147677Y-117855D01*
X147677Y-110736D01*
X145898Y-108957D01*
X140559Y-108957D01*
X155812Y-108957D02*
X155812Y-119634D01*
X152253Y-108957D02*
X159371Y-108957D01*
X163947Y-108957D02*
X163947Y-119634D01*
X163947Y-108957D02*
X169286Y-108957D01*
X171065Y-110736D01*
X171065Y-114295D01*
X169286Y-116075D01*
X163947Y-116075D01*
X167506Y-116075D02*
X171065Y-119634D01*
D11*
X283972Y59182D02*
X283972Y67825D01*
X283972Y59182D02*
X288294Y59182D01*
X289734Y60623D01*
X289734Y66385D01*
X288294Y67825D01*
X283972Y67825D01*
X296208Y67825D02*
X296208Y59182D01*
X293327Y67825D02*
X299089Y67825D01*
X302682Y67825D02*
X302682Y59182D01*
X302682Y67825D02*
X307004Y67825D01*
X308445Y66385D01*
X308445Y63504D01*
X307004Y62063D01*
X302682Y62063D01*
X305564Y62063D02*
X308445Y59182D01*
X289734Y91785D02*
X288294Y93225D01*
X285413Y93225D01*
X283972Y91785D01*
X283972Y86023D01*
X285413Y84582D01*
X288294Y84582D01*
X289734Y86023D01*
X296208Y84582D02*
X296208Y93225D01*
X293327Y93225D02*
X299089Y93225D01*
X307004Y93225D02*
X308445Y91785D01*
X307004Y93225D02*
X304123Y93225D01*
X302682Y91785D01*
X302682Y90344D01*
X304123Y88904D01*
X307004Y88904D01*
X308445Y87463D01*
X308445Y86023D01*
X307004Y84582D01*
X304123Y84582D01*
X302682Y86023D01*
X63500Y-368300D02*
X63500Y-571500D01*
X-355600Y-571500D01*
X-355600Y-368300D02*
X63500Y-368300D01*
X-355600Y-368300D02*
X-355600Y-571500D01*
X101600Y-342900D02*
X355600Y-342900D01*
X355600Y88900D01*
X368300Y101600D01*
X368300Y304800D01*
X101600Y88900D02*
X101600Y-342900D01*
X101600Y88900D02*
X88900Y101600D01*
X88900Y304800D01*
X368300Y304800D01*
X-342138Y-515098D02*
X-342138Y-531368D01*
X-334003Y-531368D01*
X-331291Y-528656D01*
X-331291Y-517810D01*
X-334003Y-515098D01*
X-342138Y-515098D01*
X-325766Y-515098D02*
X-325766Y-531368D01*
X-325766Y-515098D02*
X-317632Y-515098D01*
X-314920Y-517810D01*
X-314920Y-523233D01*
X-317632Y-525945D01*
X-325766Y-525945D01*
X-320343Y-525945D02*
X-314920Y-531368D01*
X-306683Y-515098D02*
X-301260Y-515098D01*
X-306683Y-515098D02*
X-309395Y-517810D01*
X-309395Y-528656D01*
X-306683Y-531368D01*
X-301260Y-531368D01*
X-298548Y-528656D01*
X-298548Y-517810D01*
X-301260Y-515098D01*
X-293023Y-515098D02*
X-293023Y-531368D01*
X-293023Y-515098D02*
X-284888Y-515098D01*
X-282177Y-517810D01*
X-282177Y-523233D01*
X-284888Y-525945D01*
X-293023Y-525945D01*
X-260280Y-525945D02*
X-260280Y-515098D01*
X-260280Y-525945D02*
X-254857Y-531368D01*
X-249434Y-525945D01*
X-249434Y-515098D01*
X-243909Y-517810D02*
X-241197Y-515098D01*
X-235774Y-515098D01*
X-233062Y-517810D01*
X-233062Y-520521D01*
X-235774Y-523233D01*
X-238485Y-523233D01*
X-235774Y-523233D02*
X-233062Y-525945D01*
X-233062Y-528656D01*
X-235774Y-531368D01*
X-241197Y-531368D01*
X-243909Y-528656D01*
X-339426Y-558038D02*
X-342138Y-555326D01*
X-339426Y-558038D02*
X-336715Y-558038D01*
X-334003Y-555326D01*
X-334003Y-541768D01*
X-336715Y-541768D02*
X-331291Y-541768D01*
X-325766Y-547191D02*
X-325766Y-558038D01*
X-325766Y-547191D02*
X-320343Y-541768D01*
X-314920Y-547191D01*
X-314920Y-558038D01*
X-314920Y-549903D02*
X-325766Y-549903D01*
X-301260Y-541768D02*
X-298548Y-544480D01*
X-301260Y-541768D02*
X-306683Y-541768D01*
X-309395Y-544480D01*
X-309395Y-555326D01*
X-306683Y-558038D01*
X-301260Y-558038D01*
X-298548Y-555326D01*
X-290312Y-541768D02*
X-284888Y-541768D01*
X-290312Y-541768D02*
X-293023Y-544480D01*
X-293023Y-555326D01*
X-290312Y-558038D01*
X-284888Y-558038D01*
X-282177Y-555326D01*
X-282177Y-544480D01*
X-284888Y-541768D01*
X-276652Y-541768D02*
X-276652Y-558038D01*
X-276652Y-541768D02*
X-268517Y-541768D01*
X-265805Y-544480D01*
X-265805Y-547191D01*
X-268517Y-549903D01*
X-265805Y-552615D01*
X-265805Y-555326D01*
X-268517Y-558038D01*
X-276652Y-558038D01*
X-276652Y-549903D02*
X-268517Y-549903D01*
X-243909Y-541768D02*
X-243909Y-558038D01*
X-235774Y-558038D01*
X-233062Y-555326D01*
X-233062Y-544480D01*
X-235774Y-541768D01*
X-243909Y-541768D01*
X-227537Y-558038D02*
X-222114Y-558038D01*
X-224825Y-558038D02*
X-224825Y-541768D01*
X-222114Y-541768D02*
X-227537Y-541768D01*
X-208488Y-541768D02*
X-205776Y-544480D01*
X-208488Y-541768D02*
X-213911Y-541768D01*
X-216623Y-544480D01*
X-216623Y-555326D01*
X-213911Y-558038D01*
X-208488Y-558038D01*
X-205776Y-555326D01*
X-200251Y-541768D02*
X-189405Y-541768D01*
X-200251Y-541768D02*
X-200251Y-558038D01*
X-189405Y-558038D01*
X-194828Y-549903D02*
X-200251Y-549903D01*
D10*
X355600Y-146050D02*
X355600Y-133350D01*
X355600Y-146050D02*
X349250Y-152400D01*
X336550Y-152400D02*
X330200Y-146050D01*
X355600Y-107950D02*
X349250Y-101600D01*
X355600Y-107950D02*
X355600Y-120650D01*
X349250Y-127000D01*
X336550Y-127000D02*
X330200Y-120650D01*
X330200Y-107950D01*
X336550Y-101600D01*
X349250Y-127000D02*
X355600Y-133350D01*
X336550Y-127000D02*
X330200Y-133350D01*
X330200Y-146050D01*
X355600Y-69850D02*
X355600Y-57150D01*
X355600Y-69850D02*
X349250Y-76200D01*
X336550Y-76200D02*
X330200Y-69850D01*
X349250Y-76200D02*
X355600Y-82550D01*
X355600Y-95250D01*
X349250Y-101600D01*
X336550Y-101600D02*
X330200Y-95250D01*
X330200Y-82550D01*
X336550Y-76200D01*
X355600Y-31750D02*
X349250Y-25400D01*
X355600Y-31750D02*
X355600Y-44450D01*
X349250Y-50800D01*
X336550Y-50800D02*
X330200Y-44450D01*
X330200Y-31750D01*
X336550Y-25400D01*
X349250Y-50800D02*
X355600Y-57150D01*
X336550Y-50800D02*
X330200Y-57150D01*
X330200Y-69850D01*
X355600Y6350D02*
X355600Y19050D01*
X355600Y6350D02*
X349250Y0D01*
X336550Y0D02*
X330200Y6350D01*
X349250Y0D02*
X355600Y-6350D01*
X355600Y-19050D01*
X349250Y-25400D01*
X336550Y-25400D02*
X330200Y-19050D01*
X330200Y-6350D01*
X336550Y0D01*
X336550Y25400D02*
X349250Y25400D01*
X355600Y19050D01*
X336550Y25400D02*
X330200Y19050D01*
X330200Y6350D01*
X355600Y-311150D02*
X355600Y-323850D01*
X349250Y-330200D01*
X336550Y-330200D02*
X330200Y-323850D01*
X355600Y-285750D02*
X349250Y-279400D01*
X355600Y-285750D02*
X355600Y-298450D01*
X349250Y-304800D01*
X336550Y-304800D02*
X330200Y-298450D01*
X330200Y-285750D01*
X336550Y-279400D01*
X349250Y-304800D02*
X355600Y-311150D01*
X336550Y-304800D02*
X330200Y-311150D01*
X330200Y-323850D01*
X355600Y-247650D02*
X355600Y-234950D01*
X355600Y-247650D02*
X349250Y-254000D01*
X336550Y-254000D02*
X330200Y-247650D01*
X349250Y-254000D02*
X355600Y-260350D01*
X355600Y-273050D01*
X349250Y-279400D01*
X336550Y-279400D02*
X330200Y-273050D01*
X330200Y-260350D01*
X336550Y-254000D01*
X355600Y-209550D02*
X349250Y-203200D01*
X355600Y-209550D02*
X355600Y-222250D01*
X349250Y-228600D01*
X336550Y-228600D02*
X330200Y-222250D01*
X330200Y-209550D01*
X336550Y-203200D01*
X349250Y-228600D02*
X355600Y-234950D01*
X336550Y-228600D02*
X330200Y-234950D01*
X330200Y-247650D01*
X355600Y-171450D02*
X355600Y-158750D01*
X355600Y-171450D02*
X349250Y-177800D01*
X336550Y-177800D02*
X330200Y-171450D01*
X349250Y-177800D02*
X355600Y-184150D01*
X355600Y-196850D01*
X349250Y-203200D01*
X336550Y-203200D02*
X330200Y-196850D01*
X330200Y-184150D01*
X336550Y-177800D01*
X355600Y-158750D02*
X349250Y-152400D01*
X336550Y-152400D02*
X330200Y-158750D01*
X330200Y-171450D01*
X336550Y-330200D02*
X349250Y-330200D01*
X127000Y-146050D02*
X127000Y-133350D01*
X127000Y-146050D02*
X120650Y-152400D01*
X107950Y-152400D02*
X101600Y-146050D01*
X127000Y-107950D02*
X120650Y-101600D01*
X127000Y-107950D02*
X127000Y-120650D01*
X120650Y-127000D01*
X107950Y-127000D02*
X101600Y-120650D01*
X101600Y-107950D01*
X107950Y-101600D01*
X120650Y-127000D02*
X127000Y-133350D01*
X107950Y-127000D02*
X101600Y-133350D01*
X101600Y-146050D01*
X127000Y-69850D02*
X127000Y-57150D01*
X127000Y-69850D02*
X120650Y-76200D01*
X107950Y-76200D02*
X101600Y-69850D01*
X120650Y-76200D02*
X127000Y-82550D01*
X127000Y-95250D01*
X120650Y-101600D01*
X107950Y-101600D02*
X101600Y-95250D01*
X101600Y-82550D01*
X107950Y-76200D01*
X127000Y-31750D02*
X120650Y-25400D01*
X127000Y-31750D02*
X127000Y-44450D01*
X120650Y-50800D01*
X107950Y-50800D02*
X101600Y-44450D01*
X101600Y-31750D01*
X107950Y-25400D01*
X120650Y-50800D02*
X127000Y-57150D01*
X107950Y-50800D02*
X101600Y-57150D01*
X101600Y-69850D01*
X127000Y6350D02*
X127000Y19050D01*
X127000Y6350D02*
X120650Y0D01*
X107950Y0D02*
X101600Y6350D01*
X120650Y0D02*
X127000Y-6350D01*
X127000Y-19050D01*
X120650Y-25400D01*
X107950Y-25400D02*
X101600Y-19050D01*
X101600Y-6350D01*
X107950Y0D01*
X107950Y25400D02*
X120650Y25400D01*
X127000Y19050D01*
X107950Y25400D02*
X101600Y19050D01*
X101600Y6350D01*
X127000Y-311150D02*
X127000Y-323850D01*
X120650Y-330200D01*
X107950Y-330200D02*
X101600Y-323850D01*
X127000Y-285750D02*
X120650Y-279400D01*
X127000Y-285750D02*
X127000Y-298450D01*
X120650Y-304800D01*
X107950Y-304800D02*
X101600Y-298450D01*
X101600Y-285750D01*
X107950Y-279400D01*
X120650Y-304800D02*
X127000Y-311150D01*
X107950Y-304800D02*
X101600Y-311150D01*
X101600Y-323850D01*
X127000Y-247650D02*
X127000Y-234950D01*
X127000Y-247650D02*
X120650Y-254000D01*
X107950Y-254000D02*
X101600Y-247650D01*
X120650Y-254000D02*
X127000Y-260350D01*
X127000Y-273050D01*
X120650Y-279400D01*
X107950Y-279400D02*
X101600Y-273050D01*
X101600Y-260350D01*
X107950Y-254000D01*
X127000Y-209550D02*
X120650Y-203200D01*
X127000Y-209550D02*
X127000Y-222250D01*
X120650Y-228600D01*
X107950Y-228600D02*
X101600Y-222250D01*
X101600Y-209550D01*
X107950Y-203200D01*
X120650Y-228600D02*
X127000Y-234950D01*
X107950Y-228600D02*
X101600Y-234950D01*
X101600Y-247650D01*
X127000Y-171450D02*
X127000Y-158750D01*
X127000Y-171450D02*
X120650Y-177800D01*
X107950Y-177800D02*
X101600Y-171450D01*
X120650Y-177800D02*
X127000Y-184150D01*
X127000Y-196850D01*
X120650Y-203200D01*
X107950Y-203200D02*
X101600Y-196850D01*
X101600Y-184150D01*
X107950Y-177800D01*
X127000Y-158750D02*
X120650Y-152400D01*
X107950Y-152400D02*
X101600Y-158750D01*
X101600Y-171450D01*
X107950Y-330200D02*
X120650Y-330200D01*
X279400Y95250D02*
X273050Y101600D01*
X260350Y101600D01*
X254000Y95250D01*
X254000Y82550D01*
X260350Y76200D01*
X273050Y76200D01*
X279400Y82550D01*
X279400Y95250D01*
X273050Y76200D02*
X279400Y69850D01*
X273050Y76200D02*
X260350Y76200D01*
X254000Y69850D01*
X254000Y57150D01*
X260350Y50800D01*
X273050Y50800D01*
X279400Y57150D01*
X279400Y69850D01*
D11*
X-23876Y-118872D02*
X-51054Y-118872D01*
X-51054Y-120904D01*
X-51054Y-224028D02*
X-23876Y-224028D01*
X-23876Y-221996D01*
X-23876Y-120904D02*
X-23876Y-118872D01*
X-51054Y-221996D02*
X-51054Y-224028D01*
D12*
X-14188Y-222590D02*
X-6223Y-230556D01*
X-14188Y-230556D02*
X-6223Y-222590D01*
X-6223Y-226573D02*
X-14188Y-226573D01*
X-10206Y-222590D02*
X-10206Y-230556D01*
X-5207Y-177429D02*
X-5207Y-165481D01*
X-9190Y-173446D02*
X-5207Y-177429D01*
X-9190Y-173446D02*
X-13172Y-177429D01*
X-13172Y-165481D01*
X-16901Y-165481D02*
X-16901Y-177429D01*
X-20884Y-173446D01*
X-24866Y-177429D01*
X-24866Y-165481D01*
X-28595Y-165481D02*
X-28595Y-177429D01*
X-34569Y-177429D01*
X-36560Y-175438D01*
X-36560Y-171455D01*
X-34569Y-169464D01*
X-28595Y-169464D01*
X-40289Y-165481D02*
X-48254Y-165481D01*
X-40289Y-165481D02*
X-48254Y-173446D01*
X-48254Y-175438D01*
X-46263Y-177429D01*
X-42280Y-177429D01*
X-40289Y-175438D01*
X-51983Y-165481D02*
X-59948Y-165481D01*
X-51983Y-165481D02*
X-59948Y-173446D01*
X-59948Y-175438D01*
X-57957Y-177429D01*
X-53974Y-177429D01*
X-51983Y-175438D01*
X-63677Y-165481D02*
X-71642Y-165481D01*
X-63677Y-165481D02*
X-71642Y-173446D01*
X-71642Y-175438D01*
X-69651Y-177429D01*
X-65668Y-177429D01*
X-63677Y-175438D01*
X-75371Y-173446D02*
X-75371Y-165481D01*
X-75371Y-173446D02*
X-79354Y-177429D01*
X-83336Y-173446D01*
X-83336Y-165481D01*
X-83336Y-171455D02*
X-75371Y-171455D01*
X-87065Y-173446D02*
X-91048Y-177429D01*
X-91048Y-165481D01*
X-95030Y-165481D02*
X-87065Y-165481D01*
D11*
X114300Y-393700D02*
X139700Y-393700D01*
X114300Y-393700D02*
X114300Y-416560D01*
X116840Y-419100D01*
X114300Y-421640D01*
X114300Y-441960D01*
X116840Y-444500D01*
X114300Y-447040D01*
X114300Y-467360D01*
X116840Y-469900D01*
X114300Y-472440D01*
X114300Y-492760D01*
X116840Y-495300D01*
X114300Y-497840D01*
X114300Y-520700D01*
X139700Y-520700D01*
X139700Y-497840D01*
X137160Y-495300D01*
X139700Y-492760D01*
X139700Y-472440D01*
X137160Y-469900D01*
X139700Y-467360D01*
X139700Y-447040D01*
X137160Y-444500D01*
X139700Y-441960D01*
X139700Y-421640D01*
X137160Y-419100D01*
X139700Y-416560D01*
X139700Y-393700D01*
D13*
X146042Y-463398D02*
X144135Y-465305D01*
X144135Y-469118D01*
X146042Y-471025D01*
X147949Y-471025D01*
X149855Y-469118D01*
X149855Y-465305D01*
X151762Y-463398D01*
X153668Y-463398D01*
X155575Y-465305D01*
X155575Y-469118D01*
X153668Y-471025D01*
X155575Y-459331D02*
X155575Y-455518D01*
X155575Y-457424D02*
X144135Y-457424D01*
X144135Y-455518D02*
X144135Y-459331D01*
X144135Y-451535D02*
X155575Y-451535D01*
X147949Y-447722D02*
X144135Y-451535D01*
X147949Y-447722D02*
X144135Y-443909D01*
X155575Y-443909D01*
X146042Y-439841D02*
X144135Y-437934D01*
X144135Y-434121D01*
X146042Y-432215D01*
X147949Y-432215D01*
X149855Y-434121D01*
X151762Y-432215D01*
X153668Y-432215D01*
X155575Y-434121D01*
X155575Y-437934D01*
X153668Y-439841D01*
X151762Y-439841D01*
X149855Y-437934D01*
X147949Y-439841D01*
X146042Y-439841D01*
X149855Y-437934D02*
X149855Y-434121D01*
X153668Y-428147D02*
X146042Y-428147D01*
X144135Y-426240D01*
X144135Y-422427D01*
X146042Y-420521D01*
X153668Y-420521D01*
X155575Y-422427D01*
X155575Y-426240D01*
X153668Y-428147D01*
X146042Y-420521D01*
X146042Y-416453D02*
X153668Y-416453D01*
X146042Y-416453D02*
X144135Y-414546D01*
X144135Y-410733D01*
X146042Y-408827D01*
X153668Y-408827D01*
X155575Y-410733D01*
X155575Y-414546D01*
X153668Y-416453D01*
X146042Y-408827D01*
X144135Y-404759D02*
X155575Y-404759D01*
X155575Y-397133D01*
X125089Y-393329D02*
X121275Y-389516D01*
X132715Y-389516D01*
X132715Y-393329D02*
X132715Y-385702D01*
X121275Y-526672D02*
X121275Y-534299D01*
X126995Y-534299D01*
X125089Y-530486D01*
X125089Y-528579D01*
X126995Y-526672D01*
X130808Y-526672D01*
X132715Y-528579D01*
X132715Y-532392D01*
X130808Y-534299D01*
D11*
X317500Y-393700D02*
X342900Y-393700D01*
X317500Y-393700D02*
X317500Y-416560D01*
X320040Y-419100D01*
X317500Y-421640D01*
X317500Y-441960D01*
X320040Y-444500D01*
X317500Y-447040D01*
X317500Y-467360D01*
X320040Y-469900D01*
X317500Y-472440D01*
X317500Y-492760D01*
X320040Y-495300D01*
X317500Y-497840D01*
X317500Y-518160D01*
X317500Y-523240D02*
X317500Y-546100D01*
X342900Y-546100D01*
X342900Y-523240D01*
X342900Y-518160D02*
X342900Y-497840D01*
X340360Y-495300D01*
X342900Y-492760D01*
X342900Y-472440D01*
X340360Y-469900D01*
X342900Y-467360D01*
X342900Y-447040D01*
X340360Y-444500D01*
X342900Y-441960D01*
X342900Y-421640D01*
X340360Y-419100D01*
X342900Y-416560D01*
X342900Y-393700D01*
X340360Y-520700D02*
X342900Y-523240D01*
X340360Y-520700D02*
X342900Y-518160D01*
X320040Y-520700D02*
X317500Y-523240D01*
X320040Y-520700D02*
X317500Y-518160D01*
D13*
X347335Y-460527D02*
X349242Y-458620D01*
X347335Y-460527D02*
X347335Y-464340D01*
X349242Y-466247D01*
X351149Y-466247D01*
X353055Y-464340D01*
X353055Y-460527D01*
X354962Y-458620D01*
X356868Y-458620D01*
X358775Y-460527D01*
X358775Y-464340D01*
X356868Y-466247D01*
X354962Y-454553D02*
X347335Y-454553D01*
X354962Y-454553D02*
X358775Y-450740D01*
X354962Y-446927D01*
X347335Y-446927D01*
X358775Y-442859D02*
X358775Y-435233D01*
X358775Y-442859D02*
X351149Y-435233D01*
X349242Y-435233D01*
X347335Y-437139D01*
X347335Y-440952D01*
X349242Y-442859D01*
X349879Y-412379D02*
X346065Y-408566D01*
X357505Y-408566D01*
X357505Y-412379D02*
X357505Y-404752D01*
X346065Y-531752D02*
X347972Y-535566D01*
X351785Y-539379D01*
X355598Y-539379D01*
X357505Y-537472D01*
X357505Y-533659D01*
X355598Y-531752D01*
X353692Y-531752D01*
X351785Y-533659D01*
X351785Y-539379D01*
D14*
X-235304Y12533D02*
X-246998Y12533D01*
X-246998Y18380D01*
X-245049Y20329D01*
X-243100Y20329D01*
X-241151Y18380D01*
X-239202Y20329D01*
X-237253Y20329D01*
X-235304Y18380D01*
X-235304Y12533D01*
X-241151Y12533D02*
X-241151Y18380D01*
X-243100Y24227D02*
X-235304Y24227D01*
X-243100Y24227D02*
X-246998Y28124D01*
X-243100Y32022D01*
X-235304Y32022D01*
X-241151Y32022D02*
X-241151Y24227D01*
X-235304Y39818D02*
X-246998Y39818D01*
X-246998Y35920D02*
X-246998Y43716D01*
X-246998Y51512D02*
X-235304Y51512D01*
X-246998Y47614D02*
X-246998Y55410D01*
D15*
X-348350Y-340150D02*
X-141850Y-340150D01*
X-141850Y430350D02*
X-348350Y430350D01*
D16*
X-141850Y430350D02*
X-141850Y-213110D01*
X-348350Y-340150D02*
X-348350Y303310D01*
X-141850Y-248690D02*
X-141850Y-340150D01*
X-348350Y343490D02*
X-348350Y430350D01*
D15*
X-133490Y-229360D02*
X-133488Y-229280D01*
X-133482Y-229199D01*
X-133472Y-229119D01*
X-133458Y-229040D01*
X-133441Y-228962D01*
X-133419Y-228884D01*
X-133394Y-228808D01*
X-133365Y-228732D01*
X-133333Y-228659D01*
X-133296Y-228587D01*
X-133257Y-228517D01*
X-133214Y-228449D01*
X-133167Y-228383D01*
X-133118Y-228320D01*
X-133065Y-228259D01*
X-133010Y-228200D01*
X-132951Y-228145D01*
X-132890Y-228092D01*
X-132827Y-228043D01*
X-132761Y-227996D01*
X-132693Y-227953D01*
X-132623Y-227914D01*
X-132551Y-227877D01*
X-132478Y-227845D01*
X-132402Y-227816D01*
X-132326Y-227791D01*
X-132248Y-227769D01*
X-132170Y-227752D01*
X-132091Y-227738D01*
X-132011Y-227728D01*
X-131930Y-227722D01*
X-131850Y-227720D01*
X-131770Y-227722D01*
X-131689Y-227728D01*
X-131609Y-227738D01*
X-131530Y-227752D01*
X-131452Y-227769D01*
X-131374Y-227791D01*
X-131298Y-227816D01*
X-131222Y-227845D01*
X-131149Y-227877D01*
X-131077Y-227914D01*
X-131007Y-227953D01*
X-130939Y-227996D01*
X-130873Y-228043D01*
X-130810Y-228092D01*
X-130749Y-228145D01*
X-130690Y-228200D01*
X-130635Y-228259D01*
X-130582Y-228320D01*
X-130533Y-228383D01*
X-130486Y-228449D01*
X-130443Y-228517D01*
X-130404Y-228587D01*
X-130367Y-228659D01*
X-130335Y-228732D01*
X-130306Y-228808D01*
X-130281Y-228884D01*
X-130259Y-228962D01*
X-130242Y-229040D01*
X-130228Y-229119D01*
X-130218Y-229199D01*
X-130212Y-229280D01*
X-130210Y-229360D01*
X-130212Y-229440D01*
X-130218Y-229521D01*
X-130228Y-229601D01*
X-130242Y-229680D01*
X-130259Y-229758D01*
X-130281Y-229836D01*
X-130306Y-229912D01*
X-130335Y-229988D01*
X-130367Y-230061D01*
X-130404Y-230133D01*
X-130443Y-230203D01*
X-130486Y-230271D01*
X-130533Y-230337D01*
X-130582Y-230400D01*
X-130635Y-230461D01*
X-130690Y-230520D01*
X-130749Y-230575D01*
X-130810Y-230628D01*
X-130873Y-230677D01*
X-130939Y-230724D01*
X-131007Y-230767D01*
X-131077Y-230806D01*
X-131149Y-230843D01*
X-131222Y-230875D01*
X-131298Y-230904D01*
X-131374Y-230929D01*
X-131452Y-230951D01*
X-131530Y-230968D01*
X-131609Y-230982D01*
X-131689Y-230992D01*
X-131770Y-230998D01*
X-131850Y-231000D01*
X-131930Y-230998D01*
X-132011Y-230992D01*
X-132091Y-230982D01*
X-132170Y-230968D01*
X-132248Y-230951D01*
X-132326Y-230929D01*
X-132402Y-230904D01*
X-132478Y-230875D01*
X-132551Y-230843D01*
X-132623Y-230806D01*
X-132693Y-230767D01*
X-132761Y-230724D01*
X-132827Y-230677D01*
X-132890Y-230628D01*
X-132951Y-230575D01*
X-133010Y-230520D01*
X-133065Y-230461D01*
X-133118Y-230400D01*
X-133167Y-230337D01*
X-133214Y-230271D01*
X-133257Y-230203D01*
X-133296Y-230133D01*
X-133333Y-230061D01*
X-133365Y-229988D01*
X-133394Y-229912D01*
X-133419Y-229836D01*
X-133441Y-229758D01*
X-133458Y-229680D01*
X-133472Y-229601D01*
X-133482Y-229521D01*
X-133488Y-229440D01*
X-133490Y-229360D01*
D10*
X-114300Y192100D02*
X38100Y192100D01*
X38100Y322100D01*
X-114300Y322100D01*
X-114300Y192100D01*
D13*
X-130906Y351409D02*
X-130906Y356239D01*
X-129296Y353019D02*
X-130906Y351409D01*
X-129296Y353019D02*
X-127686Y351409D01*
X-127686Y356239D01*
X-125293Y354629D02*
X-125293Y351409D01*
X-125293Y354629D02*
X-123683Y356239D01*
X-122073Y354629D01*
X-122073Y351409D01*
X-122073Y353824D02*
X-125293Y353824D01*
X-118070Y351409D02*
X-118070Y356239D01*
X-119680Y356239D02*
X-116460Y356239D01*
X-114067Y356239D02*
X-110847Y356239D01*
X-114067Y356239D02*
X-114067Y351409D01*
X-110847Y351409D01*
X-112457Y353824D02*
X-114067Y353824D01*
X-108454Y351409D02*
X-108454Y356239D01*
X-106039Y356239D01*
X-105234Y355434D01*
X-105234Y353824D01*
X-106039Y353019D01*
X-108454Y353019D01*
X-106844Y353019D02*
X-105234Y351409D01*
X-102841Y350604D02*
X-99621Y350604D01*
X-94008Y355434D02*
X-94813Y356239D01*
X-96423Y356239D01*
X-97228Y355434D01*
X-97228Y354629D01*
X-96423Y353824D01*
X-94813Y353824D01*
X-94008Y353019D01*
X-94008Y352214D01*
X-94813Y351409D01*
X-96423Y351409D01*
X-97228Y352214D01*
X-91615Y356239D02*
X-88395Y356239D01*
X-91615Y356239D02*
X-91615Y351409D01*
X-88395Y351409D01*
X-90005Y353824D02*
X-91615Y353824D01*
X-86001Y351409D02*
X-86001Y356239D01*
X-82781Y351409D01*
X-82781Y356239D01*
X-80388Y350604D02*
X-77168Y350604D01*
X-71555Y355434D02*
X-72360Y356239D01*
X-73970Y356239D01*
X-74775Y355434D01*
X-74775Y352214D01*
X-73970Y351409D01*
X-72360Y351409D01*
X-71555Y352214D01*
X-68357Y356239D02*
X-66747Y356239D01*
X-68357Y356239D02*
X-69162Y355434D01*
X-69162Y352214D01*
X-68357Y351409D01*
X-66747Y351409D01*
X-65942Y352214D01*
X-65942Y355434D01*
X-66747Y356239D01*
X-63549Y356239D02*
X-63549Y351409D01*
X-60329Y351409D02*
X-63549Y356239D01*
X-60329Y356239D02*
X-60329Y351409D01*
X-57936Y351409D02*
X-57936Y356239D01*
X-54716Y351409D01*
X-54716Y356239D01*
X-52323Y356239D02*
X-49103Y356239D01*
X-52323Y356239D02*
X-52323Y351409D01*
X-49103Y351409D01*
X-50713Y353824D02*
X-52323Y353824D01*
X-44295Y356239D02*
X-43490Y355434D01*
X-44295Y356239D02*
X-45905Y356239D01*
X-46710Y355434D01*
X-46710Y352214D01*
X-45905Y351409D01*
X-44295Y351409D01*
X-43490Y352214D01*
X-39487Y351409D02*
X-39487Y356239D01*
X-41097Y356239D02*
X-37877Y356239D01*
X-34679Y356239D02*
X-33069Y356239D01*
X-34679Y356239D02*
X-35484Y355434D01*
X-35484Y352214D01*
X-34679Y351409D01*
X-33069Y351409D01*
X-32264Y352214D01*
X-32264Y355434D01*
X-33069Y356239D01*
X-29871Y356239D02*
X-29871Y351409D01*
X-29871Y356239D02*
X-27455Y356239D01*
X-26650Y355434D01*
X-26650Y353824D01*
X-27455Y353019D01*
X-29871Y353019D01*
X-28261Y353019D02*
X-26650Y351409D01*
D11*
X12700Y152400D02*
X12700Y-50800D01*
X-88900Y-50800D02*
X-88900Y152400D01*
X-12700Y-50800D02*
X12700Y-50800D01*
X12700Y152400D02*
X-12700Y152400D01*
X-63500Y152400D02*
X-88900Y152400D01*
X-48260Y152400D02*
X-48257Y152153D01*
X-48248Y151905D01*
X-48233Y151658D01*
X-48212Y151412D01*
X-48185Y151166D01*
X-48152Y150921D01*
X-48113Y150676D01*
X-48068Y150433D01*
X-48017Y150191D01*
X-47960Y149950D01*
X-47898Y149711D01*
X-47829Y149473D01*
X-47755Y149237D01*
X-47675Y149003D01*
X-47590Y148771D01*
X-47498Y148541D01*
X-47402Y148313D01*
X-47299Y148088D01*
X-47192Y147865D01*
X-47078Y147645D01*
X-46960Y147428D01*
X-46836Y147213D01*
X-46707Y147002D01*
X-46573Y146794D01*
X-46434Y146589D01*
X-46290Y146388D01*
X-46142Y146190D01*
X-45988Y145996D01*
X-45830Y145806D01*
X-45667Y145620D01*
X-45500Y145438D01*
X-45328Y145260D01*
X-45152Y145086D01*
X-44972Y144916D01*
X-44787Y144751D01*
X-44599Y144591D01*
X-44407Y144435D01*
X-44211Y144283D01*
X-44012Y144137D01*
X-43809Y143995D01*
X-43602Y143859D01*
X-43393Y143727D01*
X-43180Y143601D01*
X-42964Y143480D01*
X-42746Y143364D01*
X-42524Y143254D01*
X-42300Y143149D01*
X-42074Y143049D01*
X-41845Y142955D01*
X-41614Y142867D01*
X-41380Y142784D01*
X-41145Y142707D01*
X-40908Y142636D01*
X-40670Y142570D01*
X-40430Y142511D01*
X-40188Y142457D01*
X-39945Y142409D01*
X-39702Y142367D01*
X-39457Y142331D01*
X-39211Y142301D01*
X-38965Y142277D01*
X-38718Y142259D01*
X-38471Y142247D01*
X-38224Y142241D01*
X-37976Y142241D01*
X-37729Y142247D01*
X-37482Y142259D01*
X-37235Y142277D01*
X-36989Y142301D01*
X-36743Y142331D01*
X-36498Y142367D01*
X-36255Y142409D01*
X-36012Y142457D01*
X-35770Y142511D01*
X-35530Y142570D01*
X-35292Y142636D01*
X-35055Y142707D01*
X-34820Y142784D01*
X-34586Y142867D01*
X-34355Y142955D01*
X-34126Y143049D01*
X-33900Y143149D01*
X-33676Y143254D01*
X-33454Y143364D01*
X-33236Y143480D01*
X-33020Y143601D01*
X-32807Y143727D01*
X-32598Y143859D01*
X-32391Y143995D01*
X-32188Y144137D01*
X-31989Y144283D01*
X-31793Y144435D01*
X-31601Y144591D01*
X-31413Y144751D01*
X-31228Y144916D01*
X-31048Y145086D01*
X-30872Y145260D01*
X-30700Y145438D01*
X-30533Y145620D01*
X-30370Y145806D01*
X-30212Y145996D01*
X-30058Y146190D01*
X-29910Y146388D01*
X-29766Y146589D01*
X-29627Y146794D01*
X-29493Y147002D01*
X-29364Y147213D01*
X-29240Y147428D01*
X-29122Y147645D01*
X-29008Y147865D01*
X-28901Y148088D01*
X-28798Y148313D01*
X-28702Y148541D01*
X-28610Y148771D01*
X-28525Y149003D01*
X-28445Y149237D01*
X-28371Y149473D01*
X-28302Y149711D01*
X-28240Y149950D01*
X-28183Y150191D01*
X-28132Y150433D01*
X-28087Y150676D01*
X-28048Y150921D01*
X-28015Y151166D01*
X-27988Y151412D01*
X-27967Y151658D01*
X-27952Y151905D01*
X-27943Y152153D01*
X-27940Y152400D01*
X-12700Y152400D02*
X-12700Y-50800D01*
X-12700Y152400D02*
X-27940Y152400D01*
X-12700Y-50800D02*
X-63500Y-50800D01*
X-63500Y152400D01*
X-48260Y152400D01*
X-63500Y-50800D02*
X-88900Y-50800D01*
D13*
X-86995Y155575D02*
X-83182Y155575D01*
X-85088Y155575D02*
X-85088Y167015D01*
X-83182Y167015D02*
X-86995Y167015D01*
X-73479Y167015D02*
X-71573Y165108D01*
X-73479Y167015D02*
X-77292Y167015D01*
X-79199Y165108D01*
X-79199Y157482D01*
X-77292Y155575D01*
X-73479Y155575D01*
X-71573Y157482D01*
X-67505Y163202D02*
X-63692Y167015D01*
X-63692Y155575D01*
X-67505Y155575D02*
X-59879Y155575D01*
D10*
X-184150Y-381000D02*
X-196850Y-381000D01*
X-184150Y-381000D02*
X-177800Y-387350D01*
X-177800Y-400050D02*
X-184150Y-406400D01*
X-177800Y-387350D02*
X-171450Y-381000D01*
X-158750Y-381000D01*
X-152400Y-387350D01*
X-152400Y-400050D02*
X-158750Y-406400D01*
X-171450Y-406400D01*
X-177800Y-400050D01*
X-203200Y-400050D02*
X-203200Y-387350D01*
X-196850Y-381000D01*
X-203200Y-400050D02*
X-196850Y-406400D01*
X-184150Y-406400D01*
X-152400Y-400050D02*
X-152400Y-387350D01*
D13*
X-202565Y-379095D02*
X-202565Y-374265D01*
X-200150Y-374265D01*
X-199345Y-375070D01*
X-199345Y-375875D01*
X-200150Y-376680D01*
X-199345Y-377485D01*
X-199345Y-378290D01*
X-200150Y-379095D01*
X-202565Y-379095D01*
X-202565Y-376680D02*
X-200150Y-376680D01*
X-196952Y-375875D02*
X-196952Y-379095D01*
X-196952Y-375875D02*
X-195342Y-374265D01*
X-193732Y-375875D01*
X-193732Y-379095D01*
X-193732Y-376680D02*
X-196952Y-376680D01*
X-189729Y-379095D02*
X-189729Y-374265D01*
X-191339Y-374265D02*
X-188119Y-374265D01*
X-184116Y-374265D02*
X-184116Y-379095D01*
X-185726Y-374265D02*
X-182506Y-374265D01*
X-180113Y-379900D02*
X-176893Y-379900D01*
X-174500Y-379095D02*
X-172890Y-379095D01*
X-173695Y-379095D02*
X-173695Y-374265D01*
X-174500Y-374265D02*
X-172890Y-374265D01*
X-170757Y-374265D02*
X-170757Y-379095D01*
X-167537Y-379095D02*
X-170757Y-374265D01*
X-167537Y-374265D02*
X-167537Y-379095D01*
D10*
X-133350Y-381000D02*
X-120650Y-381000D01*
X-114300Y-387350D01*
X-114300Y-400050D02*
X-120650Y-406400D01*
X-114300Y-387350D02*
X-107950Y-381000D01*
X-95250Y-381000D01*
X-88900Y-387350D01*
X-88900Y-400050D02*
X-95250Y-406400D01*
X-107950Y-406400D01*
X-114300Y-400050D01*
X-139700Y-400050D02*
X-139700Y-387350D01*
X-133350Y-381000D01*
X-139700Y-400050D02*
X-133350Y-406400D01*
X-120650Y-406400D01*
X-88900Y-400050D02*
X-88900Y-387350D01*
D13*
X-135845Y-375070D02*
X-136650Y-374265D01*
X-138260Y-374265D01*
X-139065Y-375070D01*
X-139065Y-375875D01*
X-138260Y-376680D01*
X-136650Y-376680D01*
X-135845Y-377485D01*
X-135845Y-378290D01*
X-136650Y-379095D01*
X-138260Y-379095D01*
X-139065Y-378290D01*
X-133452Y-375070D02*
X-133452Y-374265D01*
X-133452Y-375070D02*
X-131842Y-376680D01*
X-130232Y-375070D01*
X-130232Y-374265D01*
X-131842Y-376680D02*
X-131842Y-379095D01*
X-125424Y-374265D02*
X-124619Y-375070D01*
X-125424Y-374265D02*
X-127034Y-374265D01*
X-127839Y-375070D01*
X-127839Y-375875D01*
X-127034Y-376680D01*
X-125424Y-376680D01*
X-124619Y-377485D01*
X-124619Y-378290D01*
X-125424Y-379095D01*
X-127034Y-379095D01*
X-127839Y-378290D01*
X-120616Y-379095D02*
X-120616Y-374265D01*
X-122226Y-374265D02*
X-119006Y-374265D01*
X-116613Y-374265D02*
X-113393Y-374265D01*
X-116613Y-374265D02*
X-116613Y-379095D01*
X-113393Y-379095D01*
X-115003Y-376680D02*
X-116613Y-376680D01*
X-111000Y-379095D02*
X-111000Y-374265D01*
X-109390Y-375875D01*
X-107779Y-374265D01*
X-107779Y-379095D01*
D11*
X-51054Y-245872D02*
X-23876Y-245872D01*
X-51054Y-245872D02*
X-51054Y-247904D01*
X-51054Y-351028D02*
X-23876Y-351028D01*
X-23876Y-348996D01*
X-23876Y-247904D02*
X-23876Y-245872D01*
X-51054Y-348996D02*
X-51054Y-351028D01*
D12*
X-14188Y-349590D02*
X-6223Y-357556D01*
X-14188Y-357556D02*
X-6223Y-349590D01*
X-6223Y-353573D02*
X-14188Y-353573D01*
X-10206Y-349590D02*
X-10206Y-357556D01*
X-5207Y-304429D02*
X-5207Y-292481D01*
X-9190Y-300446D02*
X-5207Y-304429D01*
X-9190Y-300446D02*
X-13172Y-304429D01*
X-13172Y-292481D01*
X-16901Y-292481D02*
X-16901Y-304429D01*
X-20884Y-300446D01*
X-24866Y-304429D01*
X-24866Y-292481D01*
X-28595Y-292481D02*
X-28595Y-304429D01*
X-34569Y-304429D01*
X-36560Y-302438D01*
X-36560Y-298455D01*
X-34569Y-296464D01*
X-28595Y-296464D01*
X-40289Y-292481D02*
X-48254Y-292481D01*
X-40289Y-292481D02*
X-48254Y-300446D01*
X-48254Y-302438D01*
X-46263Y-304429D01*
X-42280Y-304429D01*
X-40289Y-302438D01*
X-51983Y-292481D02*
X-59948Y-292481D01*
X-51983Y-292481D02*
X-59948Y-300446D01*
X-59948Y-302438D01*
X-57957Y-304429D01*
X-53974Y-304429D01*
X-51983Y-302438D01*
X-63677Y-292481D02*
X-71642Y-292481D01*
X-63677Y-292481D02*
X-71642Y-300446D01*
X-71642Y-302438D01*
X-69651Y-304429D01*
X-65668Y-304429D01*
X-63677Y-302438D01*
X-75371Y-300446D02*
X-75371Y-292481D01*
X-75371Y-300446D02*
X-79354Y-304429D01*
X-83336Y-300446D01*
X-83336Y-292481D01*
X-83336Y-298455D02*
X-75371Y-298455D01*
X-87065Y-292481D02*
X-95030Y-292481D01*
X-87065Y-292481D02*
X-95030Y-300446D01*
X-95030Y-302438D01*
X-93039Y-304429D01*
X-89056Y-304429D01*
X-87065Y-302438D01*
D10*
X158750Y215900D02*
X171450Y215900D01*
X177800Y209550D01*
X177800Y196850D02*
X171450Y190500D01*
X177800Y209550D02*
X184150Y215900D01*
X196850Y215900D01*
X203200Y209550D01*
X203200Y196850D02*
X196850Y190500D01*
X184150Y190500D01*
X177800Y196850D01*
X152400Y196850D02*
X152400Y209550D01*
X158750Y215900D01*
X152400Y196850D02*
X158750Y190500D01*
X171450Y190500D01*
X203200Y196850D02*
X203200Y209550D01*
D13*
X153035Y217805D02*
X153035Y221025D01*
X154645Y222635D01*
X156255Y221025D01*
X156255Y217805D01*
X156255Y220220D02*
X153035Y220220D01*
X158648Y217805D02*
X158648Y222635D01*
X161063Y222635D01*
X161868Y221830D01*
X161868Y220220D01*
X161063Y219415D01*
X158648Y219415D01*
X160258Y219415D02*
X161868Y217805D01*
X164261Y217805D02*
X164261Y222635D01*
X164261Y217805D02*
X166676Y217805D01*
X167481Y218610D01*
X167481Y221830D01*
X166676Y222635D01*
X164261Y222635D01*
X169874Y222635D02*
X169874Y218610D01*
X170679Y217805D01*
X172289Y217805D01*
X173094Y218610D01*
X173094Y222635D01*
X175487Y217805D02*
X177097Y217805D01*
X176292Y217805D02*
X176292Y222635D01*
X175487Y222635D02*
X177097Y222635D01*
X179229Y222635D02*
X179229Y217805D01*
X182450Y217805D02*
X179229Y222635D01*
X182450Y222635D02*
X182450Y217805D01*
X185648Y222635D02*
X187258Y222635D01*
X185648Y222635D02*
X184843Y221830D01*
X184843Y218610D01*
X185648Y217805D01*
X187258Y217805D01*
X188063Y218610D01*
X188063Y221830D01*
X187258Y222635D01*
X190456Y217000D02*
X193676Y217000D01*
X196069Y217805D02*
X196069Y222635D01*
X198484Y222635D01*
X199289Y221830D01*
X199289Y220220D01*
X198484Y219415D01*
X196069Y219415D01*
X202487Y222635D02*
X204097Y222635D01*
X202487Y222635D02*
X201682Y221830D01*
X201682Y218610D01*
X202487Y217805D01*
X204097Y217805D01*
X204902Y218610D01*
X204902Y221830D01*
X204097Y222635D01*
X207295Y222635D02*
X207295Y217805D01*
X208905Y219415D01*
X210515Y217805D01*
X210515Y222635D01*
X212908Y222635D02*
X216128Y222635D01*
X212908Y222635D02*
X212908Y217805D01*
X216128Y217805D01*
X214518Y220220D02*
X212908Y220220D01*
X218521Y217805D02*
X218521Y222635D01*
X220936Y222635D01*
X221741Y221830D01*
X221741Y220220D01*
X220936Y219415D01*
X218521Y219415D01*
X220131Y219415D02*
X221741Y217805D01*
D11*
X257810Y-66040D02*
X257812Y-66140D01*
X257818Y-66239D01*
X257828Y-66339D01*
X257841Y-66437D01*
X257859Y-66536D01*
X257880Y-66633D01*
X257905Y-66729D01*
X257934Y-66825D01*
X257967Y-66919D01*
X258003Y-67012D01*
X258043Y-67103D01*
X258087Y-67193D01*
X258134Y-67281D01*
X258184Y-67367D01*
X258238Y-67451D01*
X258295Y-67533D01*
X258355Y-67612D01*
X258419Y-67690D01*
X258485Y-67764D01*
X258554Y-67836D01*
X258626Y-67905D01*
X258700Y-67971D01*
X258778Y-68035D01*
X258857Y-68095D01*
X258939Y-68152D01*
X259023Y-68206D01*
X259109Y-68256D01*
X259197Y-68303D01*
X259287Y-68347D01*
X259378Y-68387D01*
X259471Y-68423D01*
X259565Y-68456D01*
X259661Y-68485D01*
X259757Y-68510D01*
X259854Y-68531D01*
X259953Y-68549D01*
X260051Y-68562D01*
X260151Y-68572D01*
X260250Y-68578D01*
X260350Y-68580D01*
X273050Y-68580D02*
X273150Y-68578D01*
X273249Y-68572D01*
X273349Y-68562D01*
X273447Y-68549D01*
X273546Y-68531D01*
X273643Y-68510D01*
X273739Y-68485D01*
X273835Y-68456D01*
X273929Y-68423D01*
X274022Y-68387D01*
X274113Y-68347D01*
X274203Y-68303D01*
X274291Y-68256D01*
X274377Y-68206D01*
X274461Y-68152D01*
X274543Y-68095D01*
X274622Y-68035D01*
X274700Y-67971D01*
X274774Y-67905D01*
X274846Y-67836D01*
X274915Y-67764D01*
X274981Y-67690D01*
X275045Y-67612D01*
X275105Y-67533D01*
X275162Y-67451D01*
X275216Y-67367D01*
X275266Y-67281D01*
X275313Y-67193D01*
X275357Y-67103D01*
X275397Y-67012D01*
X275433Y-66919D01*
X275466Y-66825D01*
X275495Y-66729D01*
X275520Y-66633D01*
X275541Y-66536D01*
X275559Y-66437D01*
X275572Y-66339D01*
X275582Y-66239D01*
X275588Y-66140D01*
X275590Y-66040D01*
X275590Y-35560D02*
X275588Y-35460D01*
X275582Y-35361D01*
X275572Y-35261D01*
X275559Y-35163D01*
X275541Y-35064D01*
X275520Y-34967D01*
X275495Y-34871D01*
X275466Y-34775D01*
X275433Y-34681D01*
X275397Y-34588D01*
X275357Y-34497D01*
X275313Y-34407D01*
X275266Y-34319D01*
X275216Y-34233D01*
X275162Y-34149D01*
X275105Y-34067D01*
X275045Y-33988D01*
X274981Y-33910D01*
X274915Y-33836D01*
X274846Y-33764D01*
X274774Y-33695D01*
X274700Y-33629D01*
X274622Y-33565D01*
X274543Y-33505D01*
X274461Y-33448D01*
X274377Y-33394D01*
X274291Y-33344D01*
X274203Y-33297D01*
X274113Y-33253D01*
X274022Y-33213D01*
X273929Y-33177D01*
X273835Y-33144D01*
X273739Y-33115D01*
X273643Y-33090D01*
X273546Y-33069D01*
X273447Y-33051D01*
X273349Y-33038D01*
X273249Y-33028D01*
X273150Y-33022D01*
X273050Y-33020D01*
X260350Y-33020D02*
X260250Y-33022D01*
X260151Y-33028D01*
X260051Y-33038D01*
X259953Y-33051D01*
X259854Y-33069D01*
X259757Y-33090D01*
X259661Y-33115D01*
X259565Y-33144D01*
X259471Y-33177D01*
X259378Y-33213D01*
X259287Y-33253D01*
X259197Y-33297D01*
X259109Y-33344D01*
X259023Y-33394D01*
X258939Y-33448D01*
X258857Y-33505D01*
X258778Y-33565D01*
X258700Y-33629D01*
X258626Y-33695D01*
X258554Y-33764D01*
X258485Y-33836D01*
X258419Y-33910D01*
X258355Y-33988D01*
X258295Y-34067D01*
X258238Y-34149D01*
X258184Y-34233D01*
X258134Y-34319D01*
X258087Y-34407D01*
X258043Y-34497D01*
X258003Y-34588D01*
X257967Y-34681D01*
X257934Y-34775D01*
X257905Y-34871D01*
X257880Y-34967D01*
X257859Y-35064D01*
X257841Y-35163D01*
X257828Y-35261D01*
X257818Y-35361D01*
X257812Y-35460D01*
X257810Y-35560D01*
X257810Y-63500D02*
X257810Y-66040D01*
X257810Y-63500D02*
X259080Y-62230D01*
X275590Y-63500D02*
X275590Y-66040D01*
X275590Y-63500D02*
X274320Y-62230D01*
X259080Y-39370D02*
X257810Y-38100D01*
X259080Y-39370D02*
X259080Y-62230D01*
X274320Y-39370D02*
X275590Y-38100D01*
X274320Y-39370D02*
X274320Y-62230D01*
X257810Y-38100D02*
X257810Y-35560D01*
X275590Y-35560D02*
X275590Y-38100D01*
D14*
X247093Y-64426D02*
X245610Y-65909D01*
X245610Y-68875D01*
X247093Y-70358D01*
X248576Y-70358D01*
X250059Y-68875D01*
X250059Y-65909D01*
X251542Y-64426D01*
X253025Y-64426D01*
X254508Y-65909D01*
X254508Y-68875D01*
X253025Y-70358D01*
X254508Y-61237D02*
X245610Y-61237D01*
X254508Y-61237D02*
X254508Y-55305D01*
X254508Y-52115D02*
X245610Y-52115D01*
X245610Y-47667D01*
X247093Y-46184D01*
X250059Y-46184D01*
X251542Y-47667D01*
X251542Y-52115D01*
X255991Y-42994D02*
X255991Y-37062D01*
X254508Y-33873D02*
X245610Y-33873D01*
X245610Y-29424D01*
X247093Y-27941D01*
X250059Y-27941D01*
X251542Y-29424D01*
X251542Y-33873D01*
X254508Y-24751D02*
X245610Y-24751D01*
X254508Y-24751D02*
X254508Y-20303D01*
X253025Y-18820D01*
X247093Y-18820D01*
X245610Y-20303D01*
X245610Y-24751D01*
X245610Y-14147D02*
X245610Y-11181D01*
X245610Y-14147D02*
X247093Y-15630D01*
X253025Y-15630D01*
X254508Y-14147D01*
X254508Y-11181D01*
X253025Y-9698D01*
X247093Y-9698D01*
X245610Y-11181D01*
X245610Y-6509D02*
X254508Y-6509D01*
X251542Y-3543D01*
X254508Y-577D01*
X245610Y-577D01*
X245610Y2613D02*
X254508Y2613D01*
X254508Y8544D02*
X245610Y2613D01*
X245610Y8544D02*
X254508Y8544D01*
D11*
X190500Y-26670D02*
X190500Y-29210D01*
X190500Y-26670D02*
X193040Y-26670D01*
X190500Y-26670D02*
X190500Y-24130D01*
X190500Y-26670D02*
X187960Y-26670D01*
X177800Y-12700D02*
X177808Y-12077D01*
X177831Y-11454D01*
X177869Y-10831D01*
X177922Y-10210D01*
X177991Y-9591D01*
X178075Y-8973D01*
X178174Y-8358D01*
X178288Y-7745D01*
X178417Y-7135D01*
X178561Y-6528D01*
X178720Y-5925D01*
X178894Y-5327D01*
X179082Y-4732D01*
X179285Y-4143D01*
X179502Y-3559D01*
X179733Y-2980D01*
X179979Y-2407D01*
X180239Y-1840D01*
X180512Y-1280D01*
X180799Y-727D01*
X181100Y-180D01*
X181414Y358D01*
X181741Y889D01*
X182081Y1411D01*
X182433Y1926D01*
X182799Y2431D01*
X183176Y2927D01*
X183566Y3414D01*
X183967Y3891D01*
X184380Y4358D01*
X184804Y4814D01*
X185239Y5261D01*
X185686Y5696D01*
X186142Y6120D01*
X186609Y6533D01*
X187086Y6934D01*
X187573Y7324D01*
X188069Y7701D01*
X188574Y8067D01*
X189089Y8419D01*
X189611Y8759D01*
X190142Y9086D01*
X190680Y9400D01*
X191227Y9701D01*
X191780Y9988D01*
X192340Y10261D01*
X192907Y10521D01*
X193480Y10767D01*
X194059Y10998D01*
X194643Y11215D01*
X195232Y11418D01*
X195827Y11606D01*
X196425Y11780D01*
X197028Y11939D01*
X197635Y12083D01*
X198245Y12212D01*
X198858Y12326D01*
X199473Y12425D01*
X200091Y12509D01*
X200710Y12578D01*
X201331Y12631D01*
X201954Y12669D01*
X202577Y12692D01*
X203200Y12700D01*
X203823Y12692D01*
X204446Y12669D01*
X205069Y12631D01*
X205690Y12578D01*
X206309Y12509D01*
X206927Y12425D01*
X207542Y12326D01*
X208155Y12212D01*
X208765Y12083D01*
X209372Y11939D01*
X209975Y11780D01*
X210573Y11606D01*
X211168Y11418D01*
X211757Y11215D01*
X212341Y10998D01*
X212920Y10767D01*
X213493Y10521D01*
X214060Y10261D01*
X214620Y9988D01*
X215173Y9701D01*
X215720Y9400D01*
X216258Y9086D01*
X216789Y8759D01*
X217311Y8419D01*
X217826Y8067D01*
X218331Y7701D01*
X218827Y7324D01*
X219314Y6934D01*
X219791Y6533D01*
X220258Y6120D01*
X220714Y5696D01*
X221161Y5261D01*
X221596Y4814D01*
X222020Y4358D01*
X222433Y3891D01*
X222834Y3414D01*
X223224Y2927D01*
X223601Y2431D01*
X223967Y1926D01*
X224319Y1411D01*
X224659Y889D01*
X224986Y358D01*
X225300Y-180D01*
X225601Y-727D01*
X225888Y-1280D01*
X226161Y-1840D01*
X226421Y-2407D01*
X226667Y-2980D01*
X226898Y-3559D01*
X227115Y-4143D01*
X227318Y-4732D01*
X227506Y-5327D01*
X227680Y-5925D01*
X227839Y-6528D01*
X227983Y-7135D01*
X228112Y-7745D01*
X228226Y-8358D01*
X228325Y-8973D01*
X228409Y-9591D01*
X228478Y-10210D01*
X228531Y-10831D01*
X228569Y-11454D01*
X228592Y-12077D01*
X228600Y-12700D01*
X228592Y-13323D01*
X228569Y-13946D01*
X228531Y-14569D01*
X228478Y-15190D01*
X228409Y-15809D01*
X228325Y-16427D01*
X228226Y-17042D01*
X228112Y-17655D01*
X227983Y-18265D01*
X227839Y-18872D01*
X227680Y-19475D01*
X227506Y-20073D01*
X227318Y-20668D01*
X227115Y-21257D01*
X226898Y-21841D01*
X226667Y-22420D01*
X226421Y-22993D01*
X226161Y-23560D01*
X225888Y-24120D01*
X225601Y-24673D01*
X225300Y-25220D01*
X224986Y-25758D01*
X224659Y-26289D01*
X224319Y-26811D01*
X223967Y-27326D01*
X223601Y-27831D01*
X223224Y-28327D01*
X222834Y-28814D01*
X222433Y-29291D01*
X222020Y-29758D01*
X221596Y-30214D01*
X221161Y-30661D01*
X220714Y-31096D01*
X220258Y-31520D01*
X219791Y-31933D01*
X219314Y-32334D01*
X218827Y-32724D01*
X218331Y-33101D01*
X217826Y-33467D01*
X217311Y-33819D01*
X216789Y-34159D01*
X216258Y-34486D01*
X215720Y-34800D01*
X215173Y-35101D01*
X214620Y-35388D01*
X214060Y-35661D01*
X213493Y-35921D01*
X212920Y-36167D01*
X212341Y-36398D01*
X211757Y-36615D01*
X211168Y-36818D01*
X210573Y-37006D01*
X209975Y-37180D01*
X209372Y-37339D01*
X208765Y-37483D01*
X208155Y-37612D01*
X207542Y-37726D01*
X206927Y-37825D01*
X206309Y-37909D01*
X205690Y-37978D01*
X205069Y-38031D01*
X204446Y-38069D01*
X203823Y-38092D01*
X203200Y-38100D01*
X202577Y-38092D01*
X201954Y-38069D01*
X201331Y-38031D01*
X200710Y-37978D01*
X200091Y-37909D01*
X199473Y-37825D01*
X198858Y-37726D01*
X198245Y-37612D01*
X197635Y-37483D01*
X197028Y-37339D01*
X196425Y-37180D01*
X195827Y-37006D01*
X195232Y-36818D01*
X194643Y-36615D01*
X194059Y-36398D01*
X193480Y-36167D01*
X192907Y-35921D01*
X192340Y-35661D01*
X191780Y-35388D01*
X191227Y-35101D01*
X190680Y-34800D01*
X190142Y-34486D01*
X189611Y-34159D01*
X189089Y-33819D01*
X188574Y-33467D01*
X188069Y-33101D01*
X187573Y-32724D01*
X187086Y-32334D01*
X186609Y-31933D01*
X186142Y-31520D01*
X185686Y-31096D01*
X185239Y-30661D01*
X184804Y-30214D01*
X184380Y-29758D01*
X183967Y-29291D01*
X183566Y-28814D01*
X183176Y-28327D01*
X182799Y-27831D01*
X182433Y-27326D01*
X182081Y-26811D01*
X181741Y-26289D01*
X181414Y-25758D01*
X181100Y-25220D01*
X180799Y-24673D01*
X180512Y-24120D01*
X180239Y-23560D01*
X179979Y-22993D01*
X179733Y-22420D01*
X179502Y-21841D01*
X179285Y-21257D01*
X179082Y-20668D01*
X178894Y-20073D01*
X178720Y-19475D01*
X178561Y-18872D01*
X178417Y-18265D01*
X178288Y-17655D01*
X178174Y-17042D01*
X178075Y-16427D01*
X177991Y-15809D01*
X177922Y-15190D01*
X177869Y-14569D01*
X177831Y-13946D01*
X177808Y-13323D01*
X177800Y-12700D01*
D13*
X178425Y12065D02*
X189865Y12065D01*
X178425Y12065D02*
X178425Y19692D01*
X184145Y15878D02*
X184145Y12065D01*
X189865Y23759D02*
X189865Y27572D01*
X189865Y25666D02*
X178425Y25666D01*
X178425Y27572D02*
X178425Y23759D01*
X178425Y31555D02*
X189865Y31555D01*
X189865Y39181D01*
X189865Y47062D02*
X178425Y47062D01*
X178425Y43249D02*
X178425Y50875D01*
X178425Y54943D02*
X178425Y62569D01*
X178425Y54943D02*
X189865Y54943D01*
X189865Y62569D01*
X184145Y58756D02*
X184145Y54943D01*
X189865Y66637D02*
X178425Y66637D01*
X178425Y72357D01*
X180332Y74263D01*
X184145Y74263D01*
X186052Y72357D01*
X186052Y66637D01*
X186052Y70450D02*
X189865Y74263D01*
X182239Y78331D02*
X178425Y82144D01*
X189865Y82144D01*
X189865Y78331D02*
X189865Y85957D01*
D11*
X259080Y-196850D02*
X259078Y-196950D01*
X259072Y-197049D01*
X259062Y-197149D01*
X259049Y-197247D01*
X259031Y-197346D01*
X259010Y-197443D01*
X258985Y-197539D01*
X258956Y-197635D01*
X258923Y-197729D01*
X258887Y-197822D01*
X258847Y-197913D01*
X258803Y-198003D01*
X258756Y-198091D01*
X258706Y-198177D01*
X258652Y-198261D01*
X258595Y-198343D01*
X258535Y-198422D01*
X258471Y-198500D01*
X258405Y-198574D01*
X258336Y-198646D01*
X258264Y-198715D01*
X258190Y-198781D01*
X258112Y-198845D01*
X258033Y-198905D01*
X257951Y-198962D01*
X257867Y-199016D01*
X257781Y-199066D01*
X257693Y-199113D01*
X257603Y-199157D01*
X257512Y-199197D01*
X257419Y-199233D01*
X257325Y-199266D01*
X257229Y-199295D01*
X257133Y-199320D01*
X257036Y-199341D01*
X256937Y-199359D01*
X256839Y-199372D01*
X256739Y-199382D01*
X256640Y-199388D01*
X256540Y-199390D01*
X259080Y-184150D02*
X259078Y-184050D01*
X259072Y-183951D01*
X259062Y-183851D01*
X259049Y-183753D01*
X259031Y-183654D01*
X259010Y-183557D01*
X258985Y-183461D01*
X258956Y-183365D01*
X258923Y-183271D01*
X258887Y-183178D01*
X258847Y-183087D01*
X258803Y-182997D01*
X258756Y-182909D01*
X258706Y-182823D01*
X258652Y-182739D01*
X258595Y-182657D01*
X258535Y-182578D01*
X258471Y-182500D01*
X258405Y-182426D01*
X258336Y-182354D01*
X258264Y-182285D01*
X258190Y-182219D01*
X258112Y-182155D01*
X258033Y-182095D01*
X257951Y-182038D01*
X257867Y-181984D01*
X257781Y-181934D01*
X257693Y-181887D01*
X257603Y-181843D01*
X257512Y-181803D01*
X257419Y-181767D01*
X257325Y-181734D01*
X257229Y-181705D01*
X257133Y-181680D01*
X257036Y-181659D01*
X256937Y-181641D01*
X256839Y-181628D01*
X256739Y-181618D01*
X256640Y-181612D01*
X256540Y-181610D01*
X226060Y-181610D02*
X225960Y-181612D01*
X225861Y-181618D01*
X225761Y-181628D01*
X225663Y-181641D01*
X225564Y-181659D01*
X225467Y-181680D01*
X225371Y-181705D01*
X225275Y-181734D01*
X225181Y-181767D01*
X225088Y-181803D01*
X224997Y-181843D01*
X224907Y-181887D01*
X224819Y-181934D01*
X224733Y-181984D01*
X224649Y-182038D01*
X224567Y-182095D01*
X224488Y-182155D01*
X224410Y-182219D01*
X224336Y-182285D01*
X224264Y-182354D01*
X224195Y-182426D01*
X224129Y-182500D01*
X224065Y-182578D01*
X224005Y-182657D01*
X223948Y-182739D01*
X223894Y-182823D01*
X223844Y-182909D01*
X223797Y-182997D01*
X223753Y-183087D01*
X223713Y-183178D01*
X223677Y-183271D01*
X223644Y-183365D01*
X223615Y-183461D01*
X223590Y-183557D01*
X223569Y-183654D01*
X223551Y-183753D01*
X223538Y-183851D01*
X223528Y-183951D01*
X223522Y-184050D01*
X223520Y-184150D01*
X223520Y-196850D02*
X223522Y-196950D01*
X223528Y-197049D01*
X223538Y-197149D01*
X223551Y-197247D01*
X223569Y-197346D01*
X223590Y-197443D01*
X223615Y-197539D01*
X223644Y-197635D01*
X223677Y-197729D01*
X223713Y-197822D01*
X223753Y-197913D01*
X223797Y-198003D01*
X223844Y-198091D01*
X223894Y-198177D01*
X223948Y-198261D01*
X224005Y-198343D01*
X224065Y-198422D01*
X224129Y-198500D01*
X224195Y-198574D01*
X224264Y-198646D01*
X224336Y-198715D01*
X224410Y-198781D01*
X224488Y-198845D01*
X224567Y-198905D01*
X224649Y-198962D01*
X224733Y-199016D01*
X224819Y-199066D01*
X224907Y-199113D01*
X224997Y-199157D01*
X225088Y-199197D01*
X225181Y-199233D01*
X225275Y-199266D01*
X225371Y-199295D01*
X225467Y-199320D01*
X225564Y-199341D01*
X225663Y-199359D01*
X225761Y-199372D01*
X225861Y-199382D01*
X225960Y-199388D01*
X226060Y-199390D01*
X254000Y-199390D02*
X256540Y-199390D01*
X254000Y-199390D02*
X252730Y-198120D01*
X254000Y-181610D02*
X256540Y-181610D01*
X254000Y-181610D02*
X252730Y-182880D01*
X229870Y-198120D02*
X228600Y-199390D01*
X229870Y-198120D02*
X252730Y-198120D01*
X229870Y-182880D02*
X228600Y-181610D01*
X229870Y-182880D02*
X252730Y-182880D01*
X228600Y-199390D02*
X226060Y-199390D01*
X226060Y-181610D02*
X228600Y-181610D01*
D14*
X188754Y-204167D02*
X187271Y-202684D01*
X184306Y-202684D01*
X182823Y-204167D01*
X182823Y-205650D01*
X184306Y-207133D01*
X187271Y-207133D01*
X188754Y-208616D01*
X188754Y-210099D01*
X187271Y-211582D01*
X184306Y-211582D01*
X182823Y-210099D01*
X191944Y-211582D02*
X194910Y-211582D01*
X193427Y-211582D02*
X193427Y-202684D01*
X191944Y-202684D02*
X194910Y-202684D01*
X198025Y-202684D02*
X198025Y-211582D01*
X200991Y-205650D02*
X198025Y-202684D01*
X200991Y-205650D02*
X203957Y-202684D01*
X203957Y-211582D01*
X207146Y-204167D02*
X208629Y-202684D01*
X211595Y-202684D01*
X213078Y-204167D01*
X213078Y-205650D01*
X211595Y-207133D01*
X213078Y-208616D01*
X213078Y-210099D01*
X211595Y-211582D01*
X208629Y-211582D01*
X207146Y-210099D01*
X207146Y-208616D01*
X208629Y-207133D01*
X207146Y-205650D01*
X207146Y-204167D01*
X208629Y-207133D02*
X211595Y-207133D01*
X216267Y-210099D02*
X216267Y-204167D01*
X217750Y-202684D01*
X220716Y-202684D01*
X222199Y-204167D01*
X222199Y-210099D01*
X220716Y-211582D01*
X217750Y-211582D01*
X216267Y-210099D01*
X222199Y-204167D01*
X225389Y-213065D02*
X231320Y-213065D01*
X234510Y-202684D02*
X240442Y-202684D01*
X234510Y-202684D02*
X234510Y-211582D01*
X240442Y-211582D01*
X237476Y-207133D02*
X234510Y-207133D01*
X243631Y-211582D02*
X243631Y-202684D01*
X249563Y-211582D01*
X249563Y-202684D01*
X252753Y-202684D02*
X252753Y-211582D01*
X252753Y-202684D02*
X257201Y-202684D01*
X258684Y-204167D01*
X258684Y-205650D01*
X257201Y-207133D01*
X258684Y-208616D01*
X258684Y-210099D01*
X257201Y-211582D01*
X252753Y-211582D01*
X252753Y-207133D02*
X257201Y-207133D01*
D10*
X209550Y381000D02*
X196850Y381000D01*
X209550Y381000D02*
X215900Y374650D01*
X215900Y361950D02*
X209550Y355600D01*
X215900Y374650D02*
X222250Y381000D01*
X234950Y381000D01*
X241300Y374650D01*
X241300Y361950D02*
X234950Y355600D01*
X222250Y355600D01*
X215900Y361950D01*
X190500Y361950D02*
X190500Y374650D01*
X196850Y381000D01*
X190500Y361950D02*
X196850Y355600D01*
X209550Y355600D01*
X241300Y361950D02*
X241300Y374650D01*
D13*
X192745Y382905D02*
X192745Y387735D01*
X191135Y387735D02*
X194355Y387735D01*
X197553Y387735D02*
X199163Y387735D01*
X197553Y387735D02*
X196748Y386930D01*
X196748Y383710D01*
X197553Y382905D01*
X199163Y382905D01*
X199968Y383710D01*
X199968Y386930D01*
X199163Y387735D01*
X204776Y387735D02*
X205581Y386930D01*
X204776Y387735D02*
X203166Y387735D01*
X202361Y386930D01*
X202361Y383710D01*
X203166Y382905D01*
X204776Y382905D01*
X205581Y383710D01*
X205581Y385320D01*
X203971Y385320D01*
X210389Y387735D02*
X211194Y386930D01*
X210389Y387735D02*
X208779Y387735D01*
X207974Y386930D01*
X207974Y383710D01*
X208779Y382905D01*
X210389Y382905D01*
X211194Y383710D01*
X211194Y385320D01*
X209584Y385320D01*
X213587Y387735D02*
X213587Y382905D01*
X216807Y382905D01*
X219200Y387735D02*
X222421Y387735D01*
X219200Y387735D02*
X219200Y382905D01*
X222421Y382905D01*
X220811Y385320D02*
X219200Y385320D01*
X224814Y382100D02*
X228034Y382100D01*
X230427Y382905D02*
X230427Y387735D01*
X232037Y384515D02*
X230427Y382905D01*
X232037Y384515D02*
X233647Y382905D01*
X233647Y387735D01*
X236040Y386125D02*
X236040Y382905D01*
X236040Y386125D02*
X237650Y387735D01*
X239260Y386125D01*
X239260Y382905D01*
X239260Y385320D02*
X236040Y385320D01*
X241653Y387735D02*
X241653Y382905D01*
X241653Y384515D02*
X244873Y387735D01*
X242458Y385320D02*
X244873Y382905D01*
X247266Y387735D02*
X250486Y387735D01*
X247266Y387735D02*
X247266Y382905D01*
X250486Y382905D01*
X248876Y385320D02*
X247266Y385320D01*
M02*
