G04 EAGLE Gerber X2 export*
%TF.Part,Single*%
%TF.FileFunction,Soldermask,Bot,1*%
%TF.FilePolarity,Negative*%
%TF.GenerationSoftware,Autodesk,EAGLE,9.1.3*%
%TF.CreationDate,2019-02-03T20:39:41Z*%
G75*
%MOMM*%
%FSLAX34Y34*%
%LPD*%
%AMOC8*
5,1,8,0,0,1.08239X$1,22.5*%
G01*
%ADD10C,2.082800*%
%ADD11C,1.625600*%
%ADD12C,5.103200*%
%ADD13C,3.703200*%
%ADD14C,2.203200*%
%ADD15R,2.082800X2.082800*%
%ADD16C,3.403200*%
%ADD17P,1.759533X8X112.500000*%
%ADD18P,1.951982X8X112.500000*%
%ADD19C,1.803400*%
%ADD20P,1.759533X8X202.500000*%


D10*
X342900Y12700D03*
X342900Y-12700D03*
X342900Y-38100D03*
X342900Y-63500D03*
X342900Y-88900D03*
X342900Y-114300D03*
X342900Y-139700D03*
X342900Y-165100D03*
X342900Y-190500D03*
X342900Y-215900D03*
X342900Y-241300D03*
X342900Y-266700D03*
X342900Y-292100D03*
X342900Y-317500D03*
X114300Y12700D03*
X114300Y-12700D03*
X114300Y-38100D03*
X114300Y-63500D03*
X114300Y-88900D03*
X114300Y-114300D03*
X114300Y-139700D03*
X114300Y-165100D03*
X114300Y-190500D03*
X114300Y-215900D03*
X114300Y-241300D03*
X114300Y-266700D03*
X114300Y-292100D03*
X114300Y-317500D03*
X266700Y88900D03*
X266700Y63500D03*
D11*
X134112Y-406400D02*
X119888Y-406400D01*
X119888Y-431800D02*
X134112Y-431800D01*
X134112Y-457200D02*
X119888Y-457200D01*
X119888Y-482600D02*
X134112Y-482600D01*
X134112Y-508000D02*
X119888Y-508000D01*
X323088Y-406400D02*
X337312Y-406400D01*
X337312Y-431800D02*
X323088Y-431800D01*
X323088Y-457200D02*
X337312Y-457200D01*
X337312Y-482600D02*
X323088Y-482600D01*
X323088Y-508000D02*
X337312Y-508000D01*
X337312Y-533400D02*
X323088Y-533400D01*
D12*
X-165100Y-228600D03*
D13*
X-165100Y406200D03*
D14*
X-245100Y406200D03*
D12*
X-325100Y323400D03*
D14*
X-245100Y-316000D03*
D10*
X-82550Y203200D03*
X-69850Y228600D03*
X-57150Y203200D03*
X-31750Y203200D03*
X-6350Y203200D03*
X-44450Y228600D03*
X-19050Y228600D03*
D15*
X6350Y228600D03*
D16*
X19050Y292100D03*
X-95250Y292100D03*
D11*
X-83312Y139700D02*
X-69088Y139700D01*
X-69088Y114300D02*
X-83312Y114300D01*
X-83312Y38100D02*
X-69088Y38100D01*
X-69088Y12700D02*
X-83312Y12700D01*
X-83312Y88900D02*
X-69088Y88900D01*
X-69088Y63500D02*
X-83312Y63500D01*
X-83312Y-12700D02*
X-69088Y-12700D01*
X-69088Y-38100D02*
X-83312Y-38100D01*
X-7112Y-38100D02*
X7112Y-38100D01*
X7112Y-12700D02*
X-7112Y-12700D01*
X-7112Y12700D02*
X7112Y12700D01*
X7112Y38100D02*
X-7112Y38100D01*
X-7112Y63500D02*
X7112Y63500D01*
X7112Y88900D02*
X-7112Y88900D01*
X-7112Y114300D02*
X7112Y114300D01*
X7112Y139700D02*
X-7112Y139700D01*
D10*
X-190500Y-393700D03*
X-165100Y-393700D03*
X-127000Y-393700D03*
X-101600Y-393700D03*
X165100Y203200D03*
X190500Y203200D03*
D17*
X266700Y-76200D03*
X266700Y-25400D03*
D18*
X203200Y0D03*
D19*
X203200Y-25400D03*
D20*
X266700Y-190500D03*
X215900Y-190500D03*
D10*
X203200Y368300D03*
X228600Y368300D03*
M02*
